<svg width="166" height="48" viewBox="0 0 166 48" fill="none" xmlns="http://www.w3.org/2000/svg">
<g clip-path="url(#clip0_1213_3238)">
<path d="M16.8307 17.6364L13.4054 8.88227L22.5446 5.26037L21.0501 1.43241L0 9.6162L5.02638 22.3147L16.8307 17.6364ZM18.2011 17.094L21.7669 15.6808L23.867 20.9819L37.1922 15.7641L40.3985 23.9636L44.4785 22.3461L36.1896 1.40332L15.3198 9.72038L18.2011 17.094ZM22.4586 21.5336L20.9295 17.6847L0.0146414 25.8976L8.1981 46.841L20.1904 42.1127L13.5091 25.038L22.4586 21.5336ZM36.3542 17.6923L15.4094 25.8761L23.5923 46.8201L44.5376 38.6363L36.3542 17.6923Z" fill="#C00D0D"/>
<path d="M165.607 38.6107C165.35 37.9341 164.971 37.3097 164.489 36.768C163.993 36.2137 163.412 35.7399 162.768 35.3636C162.071 34.9568 161.332 34.6277 160.562 34.3823C159.877 34.1398 159.258 33.9181 158.704 33.7171C158.214 33.5454 157.739 33.3332 157.284 33.0827C156.934 32.8943 156.617 32.6497 156.347 32.3587C156.125 32.1198 156.002 31.8068 156.001 31.4816C155.989 31.2168 156.069 30.956 156.227 30.7424C156.397 30.5377 156.622 30.3857 156.876 30.3041C157.208 30.1959 157.555 30.145 157.904 30.1534C158.361 30.1558 158.812 30.248 159.233 30.4246C159.684 30.6111 160.107 30.8605 160.487 31.1655C160.91 31.5145 161.263 31.9397 161.528 32.4186L165.97 29.9741C165.532 29.1766 164.977 28.4485 164.323 27.8137C163.547 27.0584 162.635 26.4539 161.635 26.0315C160.404 25.5296 159.082 25.2882 157.752 25.3226C156.424 25.3072 155.106 25.548 153.87 26.0315C152.753 26.4599 151.775 27.1863 151.046 28.1309C150.324 29.1101 149.952 30.3011 149.989 31.5147C149.962 32.4661 150.169 33.4095 150.593 34.263C150.963 34.9883 151.465 35.6394 152.073 36.1837C152.633 36.6813 153.258 37.1025 153.93 37.4362C154.585 37.7598 155.164 38.0217 155.668 38.2219C156.776 38.6654 157.621 39.0181 158.205 39.28C158.669 39.4584 159.087 39.7367 159.429 40.0949C159.663 40.3859 159.786 40.7498 159.776 41.1221C159.789 41.4644 159.683 41.8007 159.475 42.0737C159.267 42.3296 158.997 42.5276 158.689 42.6482C158.313 42.7879 157.912 42.8543 157.51 42.8437C156.858 42.842 156.213 42.6977 155.623 42.4212C154.979 42.1202 154.396 41.7062 153.901 41.199C153.336 40.6236 152.862 39.9666 152.495 39.2504L148.447 42.2123C148.947 43.2688 149.65 44.2179 150.516 45.006C151.46 45.8786 152.562 46.5653 153.764 47.0296C155.034 47.5269 156.387 47.778 157.752 47.7694C158.789 47.7736 159.821 47.6313 160.818 47.3468C161.762 47.0808 162.652 46.6512 163.446 46.078C164.225 45.5103 164.861 44.7708 165.304 43.9176C165.781 42.9878 166.019 41.9558 166 40.9126C166.01 40.1298 165.877 39.3517 165.607 38.6165L165.607 38.6107ZM111.7 31.0945H117.621V47.0145H123.512V31.0887H129.435V25.8616H111.701L111.7 31.0945ZM131.638 47.0145H146.29V42.2722H137.258V38.3453H145.687V33.7188H137.258V30.6079H146.291V25.8616H131.639L131.638 47.0145ZM82.5638 25.8616H76.7024V47.0064H91.1408V41.9952H82.5638V25.8616ZM147.212 18.1975C146.836 18.3375 146.436 18.4039 146.034 18.3931C145.381 18.3915 144.737 18.2475 144.146 17.9711C143.503 17.6693 142.92 17.2554 142.424 16.7489C141.86 16.1734 141.386 15.5167 141.019 14.8009L136.971 17.761C137.47 18.8181 138.173 19.7674 139.041 20.5547C139.984 21.4283 141.086 22.1151 142.288 22.5784C143.558 23.076 144.911 23.3273 146.276 23.3187C147.313 23.3229 148.345 23.1804 149.342 22.8956C150.286 22.6295 151.175 22.2002 151.97 21.6274C152.749 21.0599 153.385 20.3204 153.828 19.4669C154.228 18.6469 154.46 17.7564 154.512 16.8467C154.564 15.937 154.434 15.0261 154.13 14.1665C153.873 13.4897 153.495 12.8653 153.012 12.3238C152.516 11.769 151.935 11.2947 151.291 10.9182C150.594 10.5121 149.854 10.183 149.085 9.93692C148.4 9.69519 147.781 9.47344 147.227 9.27167C146.737 9.10034 146.262 8.88852 145.807 8.63843C145.457 8.44987 145.14 8.20481 144.87 7.91324C144.648 7.67479 144.524 7.36182 144.524 7.03672C144.512 6.77178 144.592 6.5109 144.75 6.29696C144.92 6.09275 145.145 5.94079 145.399 5.85871C145.731 5.7508 146.078 5.69982 146.427 5.70796C146.884 5.71094 147.335 5.8033 147.756 5.97976C148.207 6.16566 148.63 6.41477 149.01 6.71951C149.433 7.06892 149.786 7.49418 150.051 7.97318L154.493 5.5287C154.055 4.73134 153.5 4.00336 152.847 3.36883C152.07 2.61276 151.158 2.00807 150.158 1.5861C148.928 1.08412 147.606 0.842493 146.276 0.876618C144.948 0.861298 143.629 1.10224 142.393 1.5861C141.276 2.01518 140.3 2.74198 139.572 3.6866C138.849 4.66559 138.477 5.85646 138.514 7.06989C138.488 8.02155 138.695 8.96522 139.118 9.81935C139.488 10.5448 139.99 11.1959 140.598 11.74C141.159 12.2385 141.784 12.6601 142.457 12.9937C143.111 13.3161 143.689 13.578 144.193 13.7794C145.301 14.2217 146.147 14.5739 146.731 14.8358C147.194 15.0151 147.612 15.2932 147.955 15.6506C148.189 15.9414 148.312 16.3054 148.302 16.6779C148.315 17.0203 148.208 17.3566 148 17.6295C147.792 17.8852 147.522 18.0831 147.215 18.2039L147.212 18.1975ZM134.69 17.8256H125.656V13.8952H134.084V9.274H125.656V6.1631H134.688V1.41673H120.037V22.5621H134.688L134.69 17.8256ZM106.021 22.5685H111.913V6.64443H117.835V1.41673H100.101V6.6421H106.021V22.5685ZM91.7581 10.0888L93.8253 14.83H89.6703L91.7581 10.0888ZM88.6022 19.2102H94.8349L96.6222 22.5638H103.268L91.7581 -0.000488281L80.2173 22.5638H86.8933L88.6022 19.2102ZM101.441 39.2754L103.529 34.5331L105.597 39.2754H101.441ZM91.9894 47.0081H98.6655L100.374 43.6551H106.606L108.393 47.0081H115.039L103.529 24.4426L91.9894 47.0081ZM65.1457 13.6391L72.244 22.5668H79.374L70.4315 11.3291L78.861 1.41673H72.0033L65.1457 9.5068V1.41673H59.043V22.5621H65.1457V13.6391ZM69.4354 34.2339C69.1948 34.5914 68.8528 34.8697 68.4527 35.0336C67.9501 35.2384 67.4099 35.3363 66.8669 35.3211H64.905V30.6068H66.8686C67.4101 30.5917 67.9492 30.6839 68.4545 30.878C68.8522 31.0312 69.1945 31.2994 69.4371 31.648C69.6736 32.0447 69.7879 32.5016 69.7657 32.9622C69.7806 33.4085 69.6653 33.8496 69.4336 34.2322L69.4354 34.2339ZM71.6689 26.7241C70.1474 26.1032 68.5107 25.81 66.8669 25.8639H59.043V47.0087H64.905V40.0314H66.8686C68.5126 40.0851 70.1494 39.7913 71.6707 39.1695C72.8523 38.6717 73.846 37.8163 74.5104 36.725C75.1249 35.5575 75.4459 34.2594 75.4459 32.9418C75.4459 31.6242 75.1249 30.3262 74.5104 29.1587C73.8424 28.0734 72.8495 27.2231 71.6707 26.727" fill="white"/>
</g>
<defs>
<clipPath id="clip0_1213_3238">
<rect width="166" height="47.7641" fill="white"/>
</clipPath>
</defs>
</svg>
