<svg width="24" height="24" viewBox="0 0 24 24" fill="none" xmlns="http://www.w3.org/2000/svg">
<g clip-path="url(#clip0_585_8949)">
<path fill-rule="evenodd" clip-rule="evenodd" d="M21.3295 8.47955C21.6224 8.18666 21.6224 7.71178 21.3295 7.41889L16.3798 2.46914C16.0869 2.17625 15.612 2.17625 15.3191 2.46914L2.8841 14.9042C2.55591 15.2324 2.37153 15.6775 2.37153 16.1416L2.37153 20.6771C2.37153 21.0914 2.70732 21.4271 3.12153 21.4271L7.65707 21.4271C8.1212 21.4271 8.56632 21.2428 8.8945 20.9146L21.3295 8.47955ZM19.7385 7.94922L17.9708 9.71699L14.0817 5.8279L15.8495 4.06013L19.7385 7.94922ZM13.021 6.88856L16.9101 10.7776L7.83384 19.8539C7.78696 19.9008 7.72337 19.9271 7.65707 19.9271L3.87153 19.9271L3.87153 16.1416C3.87153 16.0753 3.89787 16.0117 3.94476 15.9648L13.021 6.88856Z" fill="#9BA4A9"/>
</g>
<defs>
<clipPath id="clip0_585_8949">
<rect width="24" height="24" fill="white"/>
</clipPath>
</defs>
</svg>
