<svg width="20" height="20" viewBox="0 0 20 20" fill="none" xmlns="http://www.w3.org/2000/svg">
<path fill-rule="evenodd" clip-rule="evenodd" d="M19.3295 6.47955C19.6224 6.18666 19.6224 5.71178 19.3295 5.41889L14.3798 0.469141C14.0869 0.176248 13.612 0.176248 13.3191 0.469141L0.884097 12.9042C0.555908 13.2324 0.371533 13.6775 0.371534 14.1416L0.371533 18.6771C0.371534 19.0914 0.70732 19.4271 1.12153 19.4271L5.65707 19.4271C6.1212 19.4271 6.56632 19.2428 6.8945 18.9146L19.3295 6.47955ZM17.7385 5.94922L15.9708 7.71699L12.0817 3.8279L13.8495 2.06013L17.7385 5.94922ZM11.021 4.88856L14.9101 8.77765L5.83384 17.8539C5.78696 17.9008 5.72337 17.9271 5.65707 17.9271L1.87153 17.9271L1.87153 14.1416C1.87153 14.0753 1.89787 14.0117 1.94476 13.9648L11.021 4.88856Z" fill="#9BA4A9"/>
</svg>
