<svg width="25" height="22" viewBox="0 0 25 22" fill="none" xmlns="http://www.w3.org/2000/svg">
<path fill-rule="evenodd" clip-rule="evenodd" d="M4.54867 0.276156C4.96246 -0.0920521 5.63335 -0.0920521 6.04714 0.276156L10.2855 4.04758C10.6993 4.41579 10.6993 5.01277 10.2855 5.38098C9.87167 5.74919 9.20078 5.74919 8.78699 5.38098L6.35749 3.21911V21.0571C6.35749 21.5779 5.8831 22 5.2979 22C4.71271 22 4.23832 21.5779 4.23832 21.0571V3.21911L1.80882 5.38098C1.39503 5.74919 0.724136 5.74919 0.310344 5.38098C-0.103448 5.01277 -0.103448 4.41579 0.310344 4.04758L4.54867 0.276156Z" fill="black"/>
<path fill-rule="evenodd" clip-rule="evenodd" d="M18.9178 21.7238C19.3316 22.0921 20.0025 22.0921 20.4163 21.7238L24.6546 17.9524C25.0684 17.5842 25.0684 16.9872 24.6546 16.619C24.2408 16.2508 23.5699 16.2508 23.1561 16.619L20.7266 18.7809V0.942873C20.7266 0.422148 20.2522 1.52588e-05 19.667 1.52588e-05C19.0819 1.52588e-05 18.6075 0.422148 18.6075 0.942873V18.7809L16.178 16.619C15.7642 16.2508 15.0933 16.2508 14.6795 16.619C14.2657 16.9872 14.2657 17.5842 14.6795 17.9524L18.9178 21.7238Z" fill="black"/>
</svg>
