<svg width="20" height="16" viewBox="0 0 20 16" fill="none" xmlns="http://www.w3.org/2000/svg">
<path fill-rule="evenodd" clip-rule="evenodd" d="M0.25 1C0.25 0.585786 0.585786 0.25 1 0.25H19C19.4142 0.25 19.75 0.585786 19.75 1C19.75 1.41421 19.4142 1.75 19 1.75H1C0.585786 1.75 0.25 1.41421 0.25 1ZM0.25 8C0.25 7.58579 0.585786 7.25 1 7.25H19C19.4142 7.25 19.75 7.58579 19.75 8C19.75 8.41421 19.4142 8.75 19 8.75H1C0.585786 8.75 0.25 8.41421 0.25 8ZM1 14.25C0.585786 14.25 0.25 14.5858 0.25 15C0.25 15.4142 0.585786 15.75 1 15.75H19C19.4142 15.75 19.75 15.4142 19.75 15C19.75 14.5858 19.4142 14.25 19 14.25H1Z" fill="white"/>
</svg>
