<svg width="14" height="14" viewBox="0 0 14 14" fill="none" xmlns="http://www.w3.org/2000/svg">
<path d="M0.7199 14C0.535486 14 0.351072 13.9299 0.21096 13.7887C-0.07032 13.5074 -0.07032 13.0514 0.21096 12.7701L12.7701 0.21096C13.0514 -0.07032 13.5074 -0.07032 13.7887 0.21096C14.07 0.49224 14.07 0.948264 13.7887 1.22972L1.22972 13.7887C1.08855 13.929 0.904139 14 0.7199 14Z" fill="black"/>
<path d="M13.2799 14C13.0955 14 12.9113 13.9299 12.771 13.7887L0.21096 1.22972C-0.07032 0.948265 -0.07032 0.49224 0.21096 0.21096C0.49224 -0.07032 0.948265 -0.07032 1.22972 0.21096L13.7887 12.7701C14.07 13.0514 14.07 13.5074 13.7887 13.7887C13.6475 13.929 13.4633 14 13.2799 14Z" fill="black"/>
</svg>
