<svg width="22" height="20" viewBox="0 0 22 20" fill="none" xmlns="http://www.w3.org/2000/svg">
<path fill-rule="evenodd" clip-rule="evenodd" d="M15.3053 1.75C13.9937 1.75 12.7335 2.28909 11.8047 3.25232L11.5395 3.52714C11.3982 3.67365 11.2034 3.75641 10.9998 3.75642C10.7962 3.75642 10.6013 3.67365 10.46 3.52714L10.1949 3.25229C8.26309 1.24988 5.12529 1.24988 3.19352 3.2523C1.26883 5.24739 1.26883 8.47705 3.19352 10.4721L10.4886 18.034C10.7573 18.3126 11.2054 18.3232 11.4874 18.0573C13.1657 16.4409 14.7608 14.747 16.368 13.0402C17.1737 12.1847 17.9823 11.3259 18.806 10.4721C19.7292 9.5156 20.25 8.21777 20.25 6.86222C20.25 5.50674 19.7294 4.20909 18.8061 3.2524C17.8773 2.28925 16.617 1.75 15.3053 1.75ZM10.9999 1.94228C12.1757 0.85872 13.7069 0.25 15.3053 0.25C17.0313 0.25 18.679 0.959767 19.8854 2.21074C21.0832 3.45181 21.75 5.1248 21.75 6.86222C21.75 8.5997 21.0831 10.2728 19.8854 11.5137C19.089 12.3393 18.2938 13.1836 17.4945 14.0323C15.871 15.7562 14.2301 17.4985 12.5256 19.14L12.5216 19.1438C11.6426 19.9779 10.2505 19.9476 9.40903 19.0754L2.11399 11.5136C-0.37133 8.93736 -0.37133 4.78707 2.11399 2.21085C4.54605 -0.310155 8.46239 -0.399677 10.9999 1.94228Z" fill="#0A0A0A"/>
</svg>
