<svg width="25" height="24" viewBox="0 0 25 24" fill="none" xmlns="http://www.w3.org/2000/svg">
<path d="M24.9465 23.8821V15.1353C24.9465 10.8365 24.0165 7.55273 18.9765 7.55273C16.5465 7.55273 14.9265 8.86625 14.2665 10.1201H14.2065V7.94082H9.43652V23.8821H14.4165V15.9712C14.4165 13.8815 14.8065 11.8814 17.3865 11.8814C19.9365 11.8814 19.9665 14.2397 19.9665 16.0906V23.8522H24.9465V23.8821Z" fill="white"/>
<path d="M1.33594 7.94043H6.31594V23.8817H1.33594V7.94043Z" fill="white"/>
<path d="M3.82629 0C2.23629 0 0.946289 1.28366 0.946289 2.86585C0.946289 4.44803 2.23629 5.76155 3.82629 5.76155C5.41629 5.76155 6.70629 4.44803 6.70629 2.86585C6.70629 1.28366 5.41629 0 3.82629 0Z" fill="white"/>
</svg>
