<svg width="14" height="24" viewBox="0 0 14 24" fill="none" xmlns="http://www.w3.org/2000/svg">
<path d="M4.13142 13.5469C4.04131 13.5469 2.05883 13.5469 1.15771 13.5469C0.677104 13.5469 0.526917 13.3667 0.526917 12.9161C0.526917 11.7146 0.526917 10.4831 0.526917 9.2816C0.526917 8.801 0.707142 8.65081 1.15771 8.65081H4.13142C4.13142 8.5607 4.13142 6.81852 4.13142 6.00751C4.13142 4.80601 4.34168 3.66458 4.94244 2.61327C5.57322 1.53191 6.47435 0.811014 7.61578 0.390488C8.36672 0.12015 9.11765 0 9.92867 0H12.8723C13.2929 0 13.4731 0.180225 13.4731 0.600751V4.02503C13.4731 4.44556 13.2929 4.62578 12.8723 4.62578C12.0613 4.62578 11.2503 4.62578 10.4393 4.65582C9.62829 4.65582 9.20777 5.04631 9.20777 5.88736C9.17773 6.78849 9.20777 7.65957 9.20777 8.59074H12.6921C13.1727 8.59074 13.3529 8.77096 13.3529 9.25156V12.8861C13.3529 13.3667 13.2028 13.5169 12.6921 13.5169C11.6108 13.5169 9.29788 13.5169 9.20777 13.5169V23.3091C9.20777 23.8198 9.05758 24 8.5169 24C7.25533 24 6.02379 24 4.76221 24C4.31165 24 4.13142 23.8198 4.13142 23.3692C4.13142 20.2153 4.13142 13.637 4.13142 13.5469Z" fill="#0A0A0A"/>
</svg>
