<svg width="69" height="68" viewBox="0 0 69 68" fill="none" xmlns="http://www.w3.org/2000/svg">
<g clip-path="url(#clip0_585_7382)">
<path d="M34.3661 30.5537C32.3236 30.5537 30.6621 32.2155 30.6621 34.2577C30.6621 36.3001 32.3239 37.9617 34.3661 37.9617C36.4086 37.9617 38.0703 36.3 38.0703 34.2577C38.0703 32.2155 36.4088 30.5537 34.3661 30.5537ZM34.3661 35.9442C33.4362 35.9442 32.6797 35.1875 32.6797 34.2577C32.6797 33.3279 33.4363 32.5713 34.3661 32.5713C35.2959 32.5713 36.0527 33.3279 36.0527 34.2577C36.0527 35.1875 35.2961 35.9442 34.3661 35.9442Z" fill="black"/>
<path d="M34.3657 25.5801C29.5805 25.5801 25.6875 29.4731 25.6875 34.2583C25.6875 39.0435 29.5805 42.9365 34.3657 42.9365C39.151 42.9365 43.044 39.0435 43.044 34.2583C43.044 29.4731 39.151 25.5801 34.3657 25.5801ZM34.3657 40.9189C30.6929 40.9189 27.7051 37.931 27.7051 34.2582C27.7051 30.5854 30.6931 27.5975 34.3657 27.5975C38.0384 27.5975 41.0264 30.5855 41.0264 34.2582C41.0264 37.9308 38.0384 40.9189 34.3657 40.9189Z" fill="black"/>
<path d="M34.3648 20.6855C26.8814 20.6855 20.793 26.7739 20.793 34.2574C20.793 41.7408 26.8814 47.8291 34.3648 47.8291C41.8483 47.8291 47.9367 41.7407 47.9367 34.2574C47.9367 26.7738 41.8484 20.6855 34.3648 20.6855ZM34.3648 45.8115C27.9939 45.8115 22.8107 40.6284 22.8107 34.2575C22.8107 27.8865 27.9939 22.7034 34.3648 22.7034C40.7357 22.7034 45.919 27.8866 45.919 34.2575C45.919 40.6284 40.7358 45.8115 34.3648 45.8115Z" fill="black"/>
<path d="M34.3665 15.8311C24.2058 15.8311 15.9395 24.0974 15.9395 34.2581C15.9395 44.4188 24.2058 52.6852 34.3665 52.6852C44.5273 52.6852 52.7936 44.4188 52.7936 34.2581C52.7936 24.0974 44.5273 15.8311 34.3665 15.8311ZM34.3665 50.6676C25.3183 50.6676 17.957 43.3064 17.957 34.2581C17.957 25.2099 25.3183 17.8486 34.3665 17.8486C43.4149 17.8486 50.776 25.2099 50.776 34.2581C50.776 43.3064 43.4148 50.6676 34.3665 50.6676Z" fill="black"/>
<path d="M34.3648 10.8965C21.4836 10.8965 11.0039 21.3761 11.0039 34.2575C11.0039 47.139 21.4835 57.6185 34.3648 57.6185C47.2462 57.6185 57.7259 47.1389 57.7259 34.2574C57.7259 21.3759 47.2462 10.8965 34.3648 10.8965ZM34.3648 55.6008C22.596 55.6008 13.0216 46.0262 13.0216 34.2574C13.0216 22.4886 22.596 12.9142 34.3648 12.9142C46.1336 12.9142 55.7082 22.4888 55.7082 34.2575C55.7082 46.0263 46.1337 55.6008 34.3648 55.6008Z" fill="black"/>
<path d="M34.3651 6.59375C19.1112 6.59375 6.70117 19.0037 6.70117 34.2578C6.70117 49.5116 19.1112 61.9217 34.3651 61.9217C49.619 61.9217 62.029 49.5117 62.029 34.2578C62.0291 19.0037 49.619 6.59375 34.3651 6.59375ZM34.3651 59.904C20.2236 59.904 8.71886 48.3991 8.71886 34.2578C8.71886 20.1165 20.2237 8.6113 34.3651 8.6113C48.5064 8.6113 60.0113 20.1163 60.0113 34.2577C60.0113 48.399 48.5066 59.904 34.3651 59.904Z" fill="black"/>
<path d="M67.6754 35.7035C67.4359 35.1949 67.1382 34.5621 67.1382 34.2581C67.1382 32.3319 66.9696 30.401 66.6372 28.5194C66.5522 28.0378 66.6468 27.6257 66.7562 27.1485C66.9067 26.4928 67.0939 25.6768 66.768 24.6744C66.6202 24.2202 66.4717 23.7351 66.3144 23.2212C65.748 21.3702 65.1059 19.2726 64.2005 17.7011C63.7467 16.9134 62.8787 16.3331 62.0392 15.772C61.4758 15.3954 60.8932 15.006 60.6496 14.6795C60.3975 14.3418 60.1088 13.4957 59.8538 12.7493C59.452 11.5726 59.0726 10.4611 58.4575 9.81232C57.4462 8.7457 56.3534 7.73792 55.2097 6.81687C54.175 5.9836 53.0356 5.92662 52.0303 5.87616C51.2928 5.83923 50.656 5.80723 50.0947 5.49963C48.4787 4.61377 46.7768 3.86086 45.037 3.26187C44.5406 3.09108 43.879 2.62185 43.2391 2.16816C42.2761 1.48538 41.2801 0.779211 40.2431 0.58132C38.2212 0.195633 36.143 0 34.0665 0C32.4041 0 30.972 0.670039 29.5871 1.31803C28.7118 1.72763 27.8849 2.11451 27.0581 2.30257C26.4529 2.4403 25.6782 2.39806 24.8582 2.35344C23.6925 2.28995 22.4874 2.22395 21.424 2.65399C19.9086 3.26666 18.4258 4.00071 17.0166 4.83584C16.1018 5.37798 15.5397 6.29226 14.9961 7.17652C14.6201 7.78799 14.2651 8.36546 13.8657 8.68607C13.301 9.13936 12.5356 9.45306 11.7252 9.78509C10.5509 10.2664 9.33629 10.7641 8.46066 11.7839C7.30585 13.1289 6.25345 14.5771 5.33226 16.0881C4.56978 17.3392 4.31226 18.9646 4.06337 20.5364C3.9028 21.5499 3.75113 22.5071 3.48085 23.2666C2.96315 24.7211 2.54572 26.2268 2.23999 27.7413C2.0081 28.8906 1.83637 30.0669 1.72946 31.2376C1.63821 32.2351 1.59213 33.2512 1.59213 34.2579C1.59213 34.9944 1.34775 35.8754 1.08877 36.8085C0.7238 38.124 0.34648 39.4845 0.579831 40.755C0.800831 41.9589 1.09302 43.1629 1.44829 44.3332C1.80078 45.4943 2.22299 46.648 2.7035 47.7622C3.11469 48.716 4.00493 49.327 4.86596 49.9178C5.42629 50.3025 6.00562 50.7 6.22755 51.0705C6.74153 51.9289 7.302 52.7744 7.89368 53.5832C8.56239 54.4979 9.28715 55.3881 10.0476 56.2295C10.3586 56.5735 10.7156 57.2281 11.0607 57.8612C11.5719 58.799 12.1007 59.7685 12.7783 60.3556C13.9174 61.3426 15.135 62.2589 16.3971 63.0789C17.2392 63.6261 18.1229 63.6226 18.8323 63.6193C19.3391 63.6182 19.7766 63.6155 20.1386 63.7902C20.7163 64.0689 21.3682 64.6482 22.0581 65.2615C23.0623 66.154 24.1008 67.0767 25.2891 67.4181C26.3739 67.73 27.3297 67.7875 28.254 67.8431C28.75 67.873 29.2632 67.9038 29.8093 67.9738C29.9492 67.9918 30.089 67.9999 30.2289 67.9999C31.0353 67.9997 31.8402 67.7267 32.6223 67.4612C33.2457 67.2496 33.8904 67.0307 34.3649 67.0307C35.1616 67.0307 36.0323 67.2487 36.9544 67.4795C38.2788 67.811 39.6484 68.1543 41.0016 67.8863C42.4119 67.6079 43.7879 67.0549 45.1188 66.5202C45.5358 66.3527 45.9296 66.1944 46.3179 66.0473C47.2308 65.7014 47.9335 64.9559 48.5536 64.2982C48.9991 63.8256 49.4199 63.3793 49.8254 63.162C51.349 62.3455 52.8204 61.3993 54.1989 60.35C54.5624 60.0731 55.2277 59.8783 55.871 59.6899C56.8392 59.4065 57.8403 59.1131 58.5477 58.4127C59.8336 57.1389 61.0219 55.7499 62.0792 54.2843C62.6342 53.5151 62.7104 52.5219 62.7775 51.6459C62.8227 51.0562 62.8696 50.4466 63.0528 50.1153C63.8538 48.6694 64.5496 47.1511 65.121 45.6025C65.2825 45.1646 65.7198 44.7344 66.1827 44.2786C66.8537 43.6183 67.614 42.8697 67.8463 41.7848C68.0936 40.6299 68.2803 39.4468 68.4012 38.2683C68.4871 37.4283 68.0743 36.5513 67.6754 35.7035ZM66.394 38.0629C66.2806 39.1688 66.1055 40.279 65.8735 41.3625C65.7678 41.8561 65.282 42.3344 64.7674 42.8407C64.1949 43.4042 63.5458 44.043 63.2283 44.9039C62.6923 46.3567 62.0395 47.7812 61.2879 49.1378C60.8913 49.8538 60.8274 50.6864 60.7657 51.4917C60.7165 52.1324 60.6657 52.7948 60.4428 53.1037C59.4502 54.4797 58.3347 55.7835 57.1275 56.9794C56.783 57.3205 56.031 57.5409 55.3036 57.7538C54.4843 57.9938 53.6371 58.2419 52.9765 58.7447C51.6826 59.7295 50.3018 60.6176 48.8721 61.3838C48.1772 61.7562 47.6222 62.345 47.0853 62.9142C46.5917 63.4379 46.0811 63.9792 45.6027 64.1605C45.1957 64.3148 44.7741 64.4842 44.3664 64.6481C43.1221 65.148 41.8352 65.665 40.6106 65.9069C39.7 66.086 38.6043 65.8124 37.4442 65.5222C36.4441 65.2719 35.4102 65.0132 34.3649 65.0132C33.5573 65.0132 32.7523 65.2864 31.9738 65.5507C31.2733 65.7885 30.5492 66.0348 30.0655 65.9725C29.4521 65.894 28.9046 65.8609 28.3752 65.829C27.4857 65.7755 26.7172 65.7293 25.8461 65.479C25.0983 65.2641 24.2341 64.496 23.3983 63.7532C22.6353 63.0752 21.8463 62.3739 21.0153 61.973C20.3 61.6278 19.5846 61.6012 18.9871 61.6012C18.9316 61.6012 18.8771 61.6015 18.8238 61.6018C18.2091 61.6028 17.8169 61.5952 17.4963 61.387C16.3116 60.6172 15.1686 59.7571 14.0993 58.8306C13.6976 58.4824 13.2378 57.6393 12.8322 56.8951C12.4122 56.125 12.0157 55.3974 11.5443 54.8761C10.8303 54.0863 10.15 53.2506 9.52223 52.392C8.96694 51.6326 8.44074 50.8393 7.95863 50.0338C7.51039 49.2853 6.74645 48.7609 6.00761 48.254C5.38273 47.8251 4.7366 47.3818 4.5561 46.963C4.10547 45.9178 3.70943 44.8356 3.37885 43.7466C3.0455 42.6489 2.7715 41.5196 2.56418 40.3903C2.41477 39.5761 2.72914 38.4431 3.03288 37.3474C3.31643 36.3254 3.60968 35.2686 3.60968 34.2575C3.60968 33.3118 3.65311 32.3575 3.73864 31.4209C3.83918 30.3222 4.00028 29.2184 4.21783 28.14C4.50444 26.7192 4.89597 25.3072 5.38154 23.9429C5.71463 23.0072 5.88808 21.9115 6.05596 20.8521C6.2743 19.4738 6.49995 18.0486 7.05497 17.1381C7.91945 15.7198 8.90731 14.3606 9.99132 13.0982C10.5506 12.4468 11.4926 12.0608 12.4901 11.652C13.3977 11.28 14.336 10.8954 15.1284 10.2594C15.8005 9.72002 16.2653 8.96405 16.7147 8.23318C17.1299 7.55783 17.5592 6.8595 18.0452 6.57143C19.3674 5.78797 20.7586 5.09907 22.1801 4.52439C22.8263 4.26315 23.8034 4.31614 24.7481 4.36794C25.6708 4.41827 26.6252 4.4706 27.506 4.26979C28.5436 4.03352 29.5088 3.58209 30.4421 3.1454C31.6821 2.56541 32.853 2.01755 34.0668 2.01755C36.0167 2.01755 37.9676 2.2011 39.8655 2.56341C40.4717 2.67896 41.3222 3.28206 42.0726 3.81424C42.8287 4.35027 43.6106 4.90463 44.3807 5.16986C46.0129 5.73166 47.6091 6.43809 49.1255 7.26909C50.0927 7.79915 51.0686 7.84816 51.9298 7.89132C52.8538 7.93754 53.4454 7.98641 53.9447 8.38844C55.0185 9.25305 56.0443 10.1992 56.9937 11.2005C57.3059 11.5296 57.6751 12.6113 57.9447 13.4012C58.2772 14.3744 58.5909 15.2938 59.0325 15.8858C59.4835 16.4904 60.2128 16.978 60.918 17.4493C61.5347 17.8614 62.2337 18.3287 62.4524 18.7081C63.2437 20.0814 63.8502 22.0629 64.3852 23.8113C64.5451 24.3338 64.6961 24.8272 64.8494 25.2981C65.0027 25.7693 64.9134 26.1585 64.7898 26.6968C64.6581 27.2708 64.4941 27.9852 64.6503 28.8699C64.9623 30.6361 65.1206 32.4487 65.1206 34.2577C65.1206 35.0127 65.4913 35.8004 65.8499 36.5624C66.078 37.0475 66.423 37.7804 66.394 38.0629Z" fill="black"/>
</g>
<defs>
<clipPath id="clip0_585_7382">
<rect width="68" height="68" fill="white" transform="translate(0.460938)"/>
</clipPath>
</defs>
</svg>
