<svg width="79" height="60" viewBox="0 0 79 60" fill="none" xmlns="http://www.w3.org/2000/svg">
<g clip-path="url(#clip0_585_7371)">
<path d="M15.5206 28.7544C10.5012 28.7544 6.41797 24.7082 6.41797 19.7364C6.41797 14.7639 10.5012 10.7178 15.5206 10.7178C20.5394 10.7178 24.622 14.7633 24.622 19.7364C24.622 24.7088 20.5394 28.7544 15.5206 28.7544ZM15.5206 13.2488C11.8965 13.2488 8.94899 16.1592 8.94899 19.7364C8.94899 23.3129 11.8965 26.2233 15.5206 26.2233C19.1435 26.2233 22.091 23.3129 22.091 19.7364C22.091 16.1592 19.1435 13.2488 15.5206 13.2488Z" fill="black"/>
<path d="M19.1822 53.723H3.30775C1.48364 53.723 0 52.2486 0 50.4362V46.2967C0 37.8225 6.96215 30.9277 15.5204 30.9277C18.8862 30.9277 22.0902 31.9782 24.7831 33.9648C25.3454 34.3801 25.4653 35.1723 25.05 35.7352C24.6348 36.2969 23.8432 36.4168 23.2803 36.0021C21.0255 34.3387 18.3425 33.4588 15.5204 33.4588C8.35804 33.4588 2.53102 39.2184 2.53102 46.2967V50.4362C2.53102 50.8527 2.87953 51.1919 3.30775 51.1919H19.1828C19.8811 51.1919 20.4483 51.7586 20.4483 52.4574C20.4483 53.1557 19.8811 53.723 19.1822 53.723Z" fill="black"/>
<path d="M75.1551 52.7653H59.2807C58.5824 52.7653 58.0152 52.1987 58.0152 51.4998C58.0152 50.8015 58.5824 50.2343 59.2807 50.2343H75.1558C75.584 50.2343 75.9325 49.8957 75.9325 49.4792V45.3397C75.9325 38.2602 70.1055 32.5017 62.9431 32.5017C59.9517 32.5017 57.0314 33.5318 54.7198 35.4029C54.1772 35.8422 53.3807 35.7588 52.9401 35.2156C52.5008 34.6725 52.5836 33.8754 53.128 33.4354C55.8883 31.2016 59.374 29.9707 62.9431 29.9707C71.5007 29.9707 78.4629 36.8649 78.4629 45.3397V49.4792C78.4629 51.2909 76.9792 52.7653 75.1551 52.7653Z" fill="black"/>
<path d="M62.9393 28.1294C57.9205 28.1294 53.8379 24.0838 53.8379 19.1114C53.8379 14.1389 57.9205 10.0928 62.9393 10.0928C67.9587 10.0928 72.0419 14.1383 72.0419 19.1114C72.0419 24.0844 67.9581 28.1294 62.9393 28.1294ZM62.9393 12.6238C59.3164 12.6238 56.3689 15.5342 56.3689 19.1114C56.3689 22.6885 59.3164 25.5983 62.9393 25.5983C66.5634 25.5983 69.5109 22.6885 69.5109 19.1114C69.5109 15.5342 66.5628 12.6238 62.9393 12.6238Z" fill="black"/>
<path d="M56.406 57.8411H22.0544C19.7724 57.8411 17.9161 55.9985 17.9161 53.7331V47.9111C17.9161 36.2755 27.4767 26.8096 39.2302 26.8096C50.9837 26.8096 60.5443 36.2755 60.5443 47.9111V53.7331C60.5443 55.9985 58.688 57.8411 56.406 57.8411ZM39.2302 29.3412C28.8732 29.3412 20.4472 37.6721 20.4472 47.9117V53.7338C20.4472 54.6032 21.1683 55.3107 22.0544 55.3107H56.4054C57.2915 55.3107 58.0126 54.6032 58.0126 53.7338V47.9117C58.0132 37.6721 49.5872 29.3412 39.2302 29.3412Z" fill="black"/>
<path d="M38.7918 25.3313C32.3431 25.3313 27.0957 20.134 27.0957 13.7446C27.0957 7.35592 32.3425 2.15918 38.7918 2.15918C45.2417 2.15918 50.4885 7.35654 50.4885 13.7453C50.4885 20.1346 45.241 25.3313 38.7918 25.3313ZM38.7918 4.6902C33.7384 4.6902 29.6267 8.75243 29.6267 13.7453C29.6267 18.7387 33.7384 22.8009 38.7918 22.8009C43.8458 22.8009 47.9574 18.7387 47.9574 13.7453C47.9574 8.75243 43.8458 4.6902 38.7918 4.6902Z" fill="black"/>
</g>
<defs>
<clipPath id="clip0_585_7371">
<rect width="78.4615" height="60" fill="white"/>
</clipPath>
</defs>
</svg>
