<svg width="71" height="68" viewBox="0 0 71 68" fill="none" xmlns="http://www.w3.org/2000/svg">
<path d="M26.5426 54.043C25.973 53.9758 25.4576 54.3819 25.3899 54.9507C25.3223 55.5197 25.7288 56.0357 26.2976 56.1034C28.0303 56.3092 29.5974 56.4 31.0385 56.4C36.1379 56.4 39.6576 55.264 43.3362 54.0768C47.8226 52.6289 52.4616 51.1315 60.7941 51.1315C61.3672 51.1315 61.8315 50.667 61.8315 50.0941C61.8315 49.5211 61.3672 49.0566 60.7941 49.0566C52.1349 49.0566 47.1218 50.6746 42.699 52.1022C38.0078 53.6164 33.9559 54.924 26.5426 54.043Z" fill="black"/>
<path d="M70.823 27.5593C70.823 26.9863 70.3587 26.5218 69.7856 26.5218H53.7707C53.4158 25.9813 53.0117 25.4316 52.5526 24.8742C52.3667 24.6485 52.0941 24.5117 51.8019 24.4977C51.5088 24.4833 51.2251 24.5936 51.0183 24.8004L49.2968 26.5218H48.2644C48.1726 26.0717 48.0482 25.5962 47.8787 25.104C47.0338 22.6493 44.8961 19.3002 39.5114 17.285C39.2376 17.1826 38.9329 17.2003 38.6728 17.3342C38.4128 17.4681 38.2213 17.7056 38.1457 17.9882L37.1909 21.5525C36.7721 20.9968 36.2408 20.3976 35.5787 19.8219C33.6195 18.1184 30.0936 16.2864 24.4223 17.2334C24.1338 17.2815 23.879 17.4493 23.7207 17.6952C23.5625 17.9412 23.5155 18.2426 23.591 18.5252L24.5453 22.0877C23.264 21.5456 21.8786 21.239 20.503 21.1966C19.9292 21.1783 19.4517 21.6288 19.434 22.2015C19.4164 22.7742 19.8663 23.2528 20.4389 23.2705C23.4504 23.3633 25.4273 24.9444 25.5176 25.0181C25.7349 25.2044 26.0275 25.299 26.3287 25.2595C26.845 25.1916 27.2308 24.7515 27.2308 24.2309C27.2308 24.1357 27.2308 24.021 27.1731 23.8793L25.9001 19.1271C34.1581 18.2934 36.4734 24.3165 36.5704 24.5804C36.7233 25.0079 37.1389 25.2878 37.5896 25.2675C38.043 25.249 38.4319 24.9377 38.5493 24.4994L39.8446 19.664C47.4114 23.0698 46.4065 29.4437 46.3586 29.7209C46.2774 30.1674 46.4959 30.6149 46.8977 30.8254C47.2994 31.036 47.792 30.961 48.1129 30.6401L51.6517 27.1013C56.5027 33.8345 52.4451 38.8515 52.2652 39.0676C51.9715 39.4137 51.9369 39.9104 52.1797 40.2939C52.4226 40.6773 52.8865 40.8584 53.3247 40.7409L58.1587 39.4457C58.3414 41.2559 58.2082 42.9084 57.761 44.3782H42.2394C41.7168 39.1173 37.266 34.9946 31.8699 34.9946C26.4737 34.9946 22.0229 39.1173 21.5003 44.3782H6.89155C8.49503 41.6775 10.9196 40.7577 11.034 40.7155C11.4613 40.5626 11.7395 40.1497 11.7209 39.6963C11.7024 39.2429 11.3912 38.8542 10.9529 38.7366L6.11886 37.4413C9.52459 29.8743 15.8987 30.8794 16.1756 30.9273C16.622 31.0084 17.0695 30.79 17.2801 30.3881C17.4908 29.9861 17.4157 29.4939 17.0948 29.173L13.5561 25.6342C14.6149 24.8719 15.6879 24.2884 16.7571 23.8945C17.2948 23.6964 17.5701 23.1001 17.372 22.5624C17.1739 22.0247 16.5777 21.7493 16.0399 21.9475C14.4444 22.5351 12.8595 23.4724 11.3291 24.7333C11.1033 24.9192 10.9665 25.1918 10.9524 25.484C10.9383 25.7761 11.0483 26.0607 11.255 26.2676L11.5093 26.5218H1.03745C0.464499 26.5218 0 26.9863 0 27.5593V40.4983C0 41.0713 0.464499 41.5358 1.03745 41.5358H6.42705C5.74247 42.2913 5.08266 43.2287 4.55453 44.3784H1.03745C0.464499 44.3784 0 44.8429 0 45.4158V66.9627C0 67.5357 0.464499 68.0002 1.03745 68.0002H58.1343C58.7074 68.0002 59.1718 67.5357 59.1718 66.9627C59.1718 66.3898 58.7074 65.9253 58.1343 65.9253H2.07489V61.0813H68.7481V65.9253H62.2841C61.7111 65.9253 61.2467 66.3898 61.2467 66.9627C61.2467 67.5357 61.7111 68.0002 62.2841 68.0002H69.7856C70.3587 68.0002 70.823 67.5357 70.823 66.9627V27.5593ZM60.3022 41.5358H63.72C64.504 41.5358 65.1418 42.1736 65.1418 42.9578C65.1418 43.3372 64.9942 43.6932 64.7249 43.9616C64.4563 44.2304 64.0994 44.3784 63.7198 44.3784H59.9117C60.1366 43.4776 60.2669 42.5289 60.3022 41.5358ZM31.8699 37.0693C36.1206 37.0693 39.6368 40.2641 40.1496 44.3781H23.5901C24.1029 40.2641 27.6192 37.0693 31.8699 37.0693ZM2.07489 28.5967H13.5843L13.8637 28.8762C13.1731 28.9611 12.3885 29.1215 11.5587 29.4072C9.10408 30.2522 5.75492 32.3898 3.73979 37.7745C3.63729 38.0484 3.65513 38.353 3.78903 38.6131C3.92293 38.8731 4.1603 39.0646 4.4429 39.1404L5.63901 39.4609H2.07489V28.5967ZM63.72 46.4533C64.6537 46.4533 65.5318 46.0895 66.191 45.4299C66.8524 44.7707 67.2167 43.8927 67.2167 42.9578C67.2167 41.0296 65.6481 39.4609 63.72 39.4609H60.2431C60.1997 38.9717 60.1372 38.4743 60.0527 37.9675C60.0045 37.679 59.8367 37.4242 59.5908 37.2659C59.3448 37.1075 59.0436 37.0606 58.7608 37.1362L55.1975 38.0909C55.4694 37.4504 55.7226 36.6908 55.8901 35.8295C56.2418 34.0211 56.2533 31.4963 54.9242 28.5967H68.7481V51.8869C68.5238 51.9589 68.3009 52.0308 68.0792 52.1025C63.388 53.617 59.3365 54.9248 51.9243 54.0436C51.3562 53.9749 50.8393 54.3823 50.7717 54.9513C50.704 55.5204 51.1103 56.0364 51.6794 56.104C53.4123 56.3101 54.9794 56.4008 56.4208 56.4008C61.5188 56.4008 65.0385 55.2646 68.7167 54.0771C68.7271 54.0738 68.7377 54.0703 68.7483 54.067V59.0064H2.07489V56.3941C10.1015 56.2705 14.8897 54.7268 19.1326 53.3575C23.8241 51.8434 27.8759 50.536 35.2889 51.4167C35.858 51.4838 36.3738 51.0778 36.4416 50.509C36.5093 49.94 36.1029 49.424 35.5339 49.3563C27.6697 48.4221 23.2135 49.8601 18.4953 51.3829C14.1992 52.7694 9.76057 54.2002 2.07489 54.319V46.4533H63.72Z" fill="black"/>
<path d="M56.5047 21.044L56.6178 21.3622C57.0952 22.7034 58.3711 23.5577 59.7364 23.5577C60.0299 23.5577 60.3279 23.5181 60.6227 23.4354L64.1514 22.4457C65.0297 22.1993 65.7738 21.5934 66.1932 20.7834C66.6126 19.9734 66.6776 19.016 66.3716 18.1567L66.0901 17.3659C65.7844 16.5066 65.1292 15.8057 64.2923 15.4428C63.4553 15.0797 62.4957 15.0803 61.6595 15.4444L58.2991 16.9067C56.7129 17.5969 55.9247 19.4142 56.5047 21.044ZM59.1268 18.8092L62.4873 17.347C62.6455 17.2782 62.8115 17.2438 62.9777 17.2438C63.1434 17.2438 63.3091 17.2779 63.4666 17.3464C63.7824 17.4833 64.0199 17.7375 64.1354 18.0617L64.4169 18.8525C64.5323 19.1769 64.5088 19.5238 64.3505 19.8294C64.1923 20.1351 63.9226 20.3547 63.5911 20.4477L60.0624 21.4374C59.4429 21.6107 58.7884 21.2725 58.5728 20.6662C58.5727 20.6662 58.5727 20.6662 58.5727 20.6661L58.4595 20.3479C58.2439 19.7421 58.537 19.0659 59.1268 18.8092Z" fill="black"/>
<path d="M51.4166 13.9818L51.6737 14.2007H51.6739C52.2909 14.7261 53.0531 14.9853 53.8134 14.9853C54.676 14.9853 55.5361 14.6514 56.1786 13.9938L58.74 11.3724C59.3772 10.7199 59.7188 9.82314 59.677 8.91198C59.6351 8.00083 59.2128 7.13919 58.5182 6.54799L57.879 6.00381C57.1845 5.41261 56.2662 5.13305 55.3604 5.23721C54.4542 5.34123 53.6234 5.82164 53.0811 6.55491L50.9019 9.50167C49.8734 10.8927 50.0996 12.8605 51.4166 13.9818ZM52.5702 10.7354L54.7494 7.78877C54.954 7.51198 55.2551 7.33797 55.5972 7.29868C55.9392 7.25954 56.2721 7.36065 56.534 7.58377L57.1732 8.12795C57.4353 8.35107 57.5884 8.66341 57.6042 9.00729C57.6199 9.35117 57.4961 9.6761 57.2556 9.92246L54.6942 12.544C54.2447 13.0044 53.5085 13.038 53.0187 12.6209L52.7615 12.402C52.2718 11.9848 52.1876 11.2527 52.5702 10.7354Z" fill="black"/>
<path d="M43.576 10.1942L43.9081 10.2552H43.9083C44.1073 10.2918 44.3058 10.3094 44.5021 10.3094C45.983 10.3094 47.3281 9.30349 47.706 7.82354L48.6133 4.27284C48.8392 3.38921 48.6865 2.44182 48.1949 1.67355C47.703 0.905428 46.9065 0.370244 46.0092 0.205498L45.1836 0.0538924C44.286 -0.110854 43.3518 0.10618 42.6192 0.649248C41.8865 1.19246 41.4071 2.02393 41.304 2.93025L40.8903 6.57168C40.6949 8.29039 41.8747 9.88169 43.576 10.1942ZM42.952 6.80587L43.3657 3.16457C43.4046 2.82249 43.5784 2.52108 43.8549 2.31608C44.1314 2.11108 44.47 2.03251 44.8088 2.09462L45.6344 2.24622C45.9729 2.30847 46.2617 2.5024 46.4474 2.79234C46.633 3.08227 46.6882 3.42559 46.603 3.7591L45.6957 7.30993C45.5365 7.93337 44.9161 8.3305 44.2831 8.21445L43.9509 8.15345C43.318 8.03711 42.8793 7.44535 42.952 6.80587Z" fill="black"/>
</svg>
