<svg width="69" height="68" viewBox="0 0 69 68" fill="none" xmlns="http://www.w3.org/2000/svg">
<g clip-path="url(#clip0_585_7362)">
<path d="M38.2384 0.893033C37.6112 0.318486 36.7915 -0.000131322 35.9411 1.49054e-06H32.9809C32.1306 -0.000795384 31.311 0.317955 30.6847 0.893033L1.19645 27.9083C0.728289 28.3382 0.461602 28.9445 0.460938 29.58V65.7333C0.460938 66.9852 1.47576 68 2.72765 68H66.1944C67.4463 68 68.4611 66.9852 68.4611 65.7333V29.58C68.4608 28.9441 68.194 28.3373 67.7256 27.9072L38.2384 0.893033ZM36.7061 2.56474L61.6609 25.4275V29.1505L35.5942 5.1692V2.26671H35.941C36.2246 2.26618 36.4977 2.37256 36.7061 2.56474ZM23.1276 61.2V49.8667H45.7944V61.2H23.1276ZM7.26094 61.2V49.8667H16.3276V61.2H7.26094ZM7.26094 45.3333H16.3276V47.6H7.26094V45.3333ZM16.3276 43.0667H7.26094V32.2309L16.3276 23.8897V43.0667ZM18.5942 48.7333V21.8042L20.8609 19.7189V61.2H18.5942V48.7333ZM32.1942 22.6667H45.7942V24.9334H23.1276V22.6667H32.1942ZM23.1276 27.2H45.7944V43.0667H23.1276V27.2ZM23.1276 45.3333H45.7944V47.6H23.1276V45.3333ZM45.7942 20.4H37.8609V10.3348L45.7942 17.6335V20.4ZM34.4609 7.20574L35.5942 8.24845V20.4H33.3275V8.24845L34.4609 7.20574ZM31.0609 20.4H23.1276V17.6335L31.0609 10.3348V20.4ZM48.0609 48.7333V19.72L50.3276 21.8053V61.2H48.0609V48.7333ZM52.5942 45.3333H61.6609V47.6H52.5942V45.3333ZM61.6609 43.0667H52.5942V23.8895L61.6609 32.2308V43.0667ZM52.5942 49.8667H61.6609V61.2H52.5942V49.8667ZM32.2157 2.56474C32.4241 2.37256 32.6973 2.26618 32.9807 2.26671H33.3275V5.1692L7.26094 29.1505V25.4263L32.2157 2.56474ZM2.72765 29.58L4.99436 27.5026V65.7333H2.72765V29.58ZM7.26094 63.4667H61.6609V65.7334H7.26094V63.4667ZM66.1942 65.7333H63.9275V27.5037L66.1942 29.58V65.7333Z" fill="black"/>
</g>
<defs>
<clipPath id="clip0_585_7362">
<rect width="68" height="68" fill="white" transform="translate(0.460938)"/>
</clipPath>
</defs>
</svg>
