<svg width="18" height="18" viewBox="0 0 18 18" fill="none" xmlns="http://www.w3.org/2000/svg">
<path fill-rule="evenodd" clip-rule="evenodd" d="M1.6 0.25C0.854416 0.25 0.25 0.854415 0.25 1.6V11.4C0.25 12.1456 0.854416 12.75 1.6 12.75H5.25V16.4C5.25 17.1456 5.85442 17.75 6.6 17.75H16.4C17.1456 17.75 17.75 17.1456 17.75 16.4V6.6C17.75 5.85442 17.1456 5.25 16.4 5.25H12.75V1.6C12.75 0.854416 12.1456 0.25 11.4 0.25H1.6ZM11.25 5.25V1.75H1.75V11.25H5.25V6.6C5.25 5.85442 5.85442 5.25 6.6 5.25H11.25ZM6.75 12V16.25H16.25V6.75H12H6.75V12Z" fill="#C00D0D"/>
</svg>
