<svg width="18" height="18" viewBox="0 0 18 18" fill="none" xmlns="http://www.w3.org/2000/svg">
<path fill-rule="evenodd" clip-rule="evenodd" d="M3.46967 7.53033L0.469669 4.53033C0.176777 4.23744 0.176777 3.76256 0.469669 3.46967L3.46967 0.469669C3.76256 0.176776 4.23744 0.176776 4.53033 0.469669C4.82322 0.762563 4.82322 1.23744 4.53033 1.53033L2.81066 3.25L17 3.25C17.4142 3.25 17.75 3.58579 17.75 4C17.75 4.41421 17.4142 4.75 17 4.75L2.81066 4.75L4.53033 6.46967C4.82322 6.76256 4.82322 7.23744 4.53033 7.53033C4.23744 7.82322 3.76256 7.82322 3.46967 7.53033ZM17.5303 14.5303C17.8232 14.2374 17.8232 13.7626 17.5303 13.4697L14.5303 10.4697C14.2374 10.1768 13.7626 10.1768 13.4697 10.4697C13.1768 10.7626 13.1768 11.2374 13.4697 11.5303L15.1893 13.25L0.999999 13.25C0.585786 13.25 0.249999 13.5858 0.249999 14C0.249999 14.4142 0.585786 14.75 0.999999 14.75L15.1893 14.75L13.4697 16.4697C13.1768 16.7626 13.1768 17.2374 13.4697 17.5303C13.7626 17.8232 14.2374 17.8232 14.5303 17.5303L17.5303 14.5303Z" fill="#0A0A0A"/>
</svg>
