<svg width="20" height="22" viewBox="0 0 20 22" fill="none" xmlns="http://www.w3.org/2000/svg">
<path fill-rule="evenodd" clip-rule="evenodd" d="M9.45171 0.922995C9.80078 0.767856 10.1992 0.767856 10.5483 0.922995L18.9483 4.65633C19.4358 4.873 19.75 5.35647 19.75 5.88997V16.1101C19.75 16.6436 19.4358 17.1271 18.9483 17.3438L10.5483 21.0771C10.1992 21.2322 9.80078 21.2322 9.45171 21.0771L1.05171 17.3438C0.56419 17.1271 0.25 16.6436 0.25 16.1101V5.88997C0.25 5.35647 0.56419 4.87301 1.05171 4.65633L5.18943 2.81734C5.19338 2.81555 5.19734 2.81379 5.20132 2.81206L9.45171 0.922995ZM5.50021 4.32069L2.84667 5.50004L10 8.67932L12.6536 7.49997L5.50021 4.32069ZM14.4988 6.67985C14.4823 6.67166 14.4655 6.66378 14.4485 6.65622L7.34687 3.49995L10 2.32079L17.1534 5.50006L14.4988 6.67985ZM13.7502 8.65406V11.4999C13.7502 11.9142 14.086 12.2499 14.5002 12.2499C14.9144 12.2499 15.2502 11.9142 15.2502 11.4999V7.98739L18.25 6.65414V16.0126L10.75 19.346V9.98746L13.7502 8.65406ZM1.75 16.0126V6.65411L9.25004 9.98746V19.346L1.75 16.0126Z" fill="#0A0A0A"/>
</svg>
