<svg width="30" height="22" viewBox="0 0 30 22" fill="none" xmlns="http://www.w3.org/2000/svg">
<path fill-rule="evenodd" clip-rule="evenodd" d="M1.88129 0C0.842285 0 0 0.857879 0 1.91613V20.0839C0 21.1421 0.842281 22 1.88129 22H28.08C29.119 22 29.9613 21.1421 29.9613 20.0839V1.91613C29.9613 0.85788 29.119 0 28.08 0H1.88129ZM2.09032 5.67742V2.12903H27.871V19.871H2.09032V7.80645H20.5548C21.1321 7.80645 21.6 7.32985 21.6 6.74194C21.6 6.15402 21.1321 5.67742 20.5548 5.67742H2.09032ZM19.9981 11C19.5364 11 19.162 11.3813 19.162 11.8516V15.8258C19.162 16.2961 19.5364 16.6774 19.9981 16.6774H23.9001C24.3619 16.6774 24.7362 16.2961 24.7362 15.8258V11.8516C24.7362 11.3813 24.3619 11 23.9001 11H19.9981Z" fill="#0A0A0A"/>
</svg>
