<svg width="22" height="20" viewBox="0 0 22 20" fill="none" xmlns="http://www.w3.org/2000/svg">
<path fill-rule="evenodd" clip-rule="evenodd" d="M1.03469 0.781828C1.43143 0.662804 1.84954 0.887942 1.96857 1.28469L2.55822 3.2502H21.0002C21.2373 3.2502 21.4604 3.36229 21.6019 3.5525C21.7434 3.74271 21.7867 3.98863 21.7186 4.21571L18.7186 14.2157C18.6234 14.5329 18.3314 14.7502 18.0002 14.7502H5.0002C4.66899 14.7502 4.377 14.5329 4.28183 14.2157L0.531828 1.71571C0.412804 1.31896 0.637942 0.900851 1.03469 0.781828ZM3.00822 4.7502L5.55822 13.2502H17.4422L19.9922 4.7502H3.00822ZM7.00024 16.7502C7.41446 16.7502 7.75024 17.086 7.75024 17.5002C7.75024 17.9144 8.08603 18.2502 8.50024 18.2502C8.91446 18.2502 9.25024 17.9144 9.25024 17.5002C9.25024 17.086 9.58603 16.7502 10.0002 16.7502C10.4145 16.7502 10.7502 17.086 10.7502 17.5002C10.7502 18.7428 9.74288 19.7502 8.50024 19.7502C7.2576 19.7502 6.25024 18.7428 6.25024 17.5002C6.25024 17.086 6.58603 16.7502 7.00024 16.7502ZM13.7502 17.5002C13.7502 17.086 13.4145 16.7502 13.0002 16.7502C12.586 16.7502 12.2502 17.086 12.2502 17.5002C12.2502 18.7428 13.2576 19.7502 14.5002 19.7502C15.7429 19.7502 16.7502 18.7428 16.7502 17.5002C16.7502 17.086 16.4145 16.7502 16.0002 16.7502C15.586 16.7502 15.2502 17.086 15.2502 17.5002C15.2502 17.9144 14.9145 18.2502 14.5002 18.2502C14.086 18.2502 13.7502 17.9144 13.7502 17.5002Z" fill="white"/>
</svg>
