<svg width="16" height="16" viewBox="0 0 16 16" fill="none" xmlns="http://www.w3.org/2000/svg">
<path fill-rule="evenodd" clip-rule="evenodd" d="M1.25 3.6875C0.93934 3.6875 0.6875 3.93934 0.6875 4.25C0.6875 4.56066 0.93934 4.8125 1.25 4.8125H14.75C15.0607 4.8125 15.3125 4.56066 15.3125 4.25C15.3125 3.93934 15.0607 3.6875 14.75 3.6875H11.5625V1.7C11.5625 1.14081 11.1092 0.6875 10.55 0.6875H5.45C4.89081 0.6875 4.4375 1.14081 4.4375 1.7V3.6875H1.25ZM10.4375 1.8125V3.6875H5.5625V1.8125H10.4375ZM3.3125 7.25C3.3125 6.93934 3.06066 6.6875 2.75 6.6875C2.43934 6.6875 2.1875 6.93934 2.1875 7.25V14.3C2.1875 14.8592 2.64081 15.3125 3.2 15.3125H12.8C13.3592 15.3125 13.8125 14.8592 13.8125 14.3V7.25C13.8125 6.93934 13.5607 6.6875 13.25 6.6875C12.9393 6.6875 12.6875 6.93934 12.6875 7.25V14.1875H3.3125V7.25ZM7.0625 7.25C7.0625 6.93934 6.81066 6.6875 6.5 6.6875C6.18934 6.6875 5.9375 6.93934 5.9375 7.25V11.75C5.9375 12.0607 6.18934 12.3125 6.5 12.3125C6.81066 12.3125 7.0625 12.0607 7.0625 11.75V7.25ZM9.5 6.6875C9.81066 6.6875 10.0625 6.93934 10.0625 7.25V11.75C10.0625 12.0607 9.81066 12.3125 9.5 12.3125C9.18934 12.3125 8.9375 12.0607 8.9375 11.75V7.25C8.9375 6.93934 9.18934 6.6875 9.5 6.6875Z" fill="#9BA4A9"/>
</svg>
