<svg width="24" height="24" viewBox="0 0 24 24" fill="none" xmlns="http://www.w3.org/2000/svg">
<path d="M5.7199 19C5.53549 19 5.35107 18.9299 5.21096 18.7887C4.92968 18.5074 4.92968 18.0514 5.21096 17.7701L17.7701 5.21096C18.0514 4.92968 18.5074 4.92968 18.7887 5.21096C19.07 5.49224 19.07 5.94826 18.7887 6.22972L6.22972 18.7887C6.08855 18.929 5.90414 19 5.7199 19Z" fill="white"/>
<path d="M18.2799 19C18.0955 19 17.9113 18.9299 17.771 18.7887L5.21096 6.22972C4.92968 5.94826 4.92968 5.49224 5.21096 5.21096C5.49224 4.92968 5.94826 4.92968 6.22972 5.21096L18.7887 17.7701C19.07 18.0514 19.07 18.5074 18.7887 18.7887C18.6475 18.929 18.4633 19 18.2799 19Z" fill="white"/>
</svg>
