<svg width="8" height="8" viewBox="0 0 8 8" fill="none" xmlns="http://www.w3.org/2000/svg">
<path d="M0.411372 8C0.305992 8 0.200613 7.95992 0.120548 7.87925C-0.0401828 7.71852 -0.0401828 7.45793 0.120548 7.2972L7.2972 0.120548C7.45793 -0.0401828 7.71852 -0.0401828 7.87925 0.120548C8.03998 0.28128 8.03998 0.541865 7.87925 0.702697L0.702697 7.87925C0.62203 7.95941 0.516651 8 0.411372 8Z" fill="black"/>
<path d="M7.58853 8C7.48315 8 7.37787 7.95992 7.29771 7.87925L0.120549 0.702697C-0.0401828 0.541865 -0.0401828 0.28128 0.120549 0.120548C0.28128 -0.0401828 0.541866 -0.0401828 0.702697 0.120548L7.87925 7.2972C8.03998 7.45793 8.03998 7.71852 7.87925 7.87925C7.79858 7.95942 7.69331 8 7.58853 8Z" fill="black"/>
</svg>
