<svg width="48" height="48" viewBox="0 0 48 48" fill="none" xmlns="http://www.w3.org/2000/svg">
<rect width="48" height="48" rx="6" fill="white"/>
<path d="M20.8177 20.5743L19.0231 15.9503L23.8112 14.0373L23.0282 12.0154L12 16.338L14.6333 23.0453L20.8177 20.5743ZM21.5356 20.2877L23.4037 19.5413L24.5039 22.3413L31.485 19.5853L33.1648 23.9162L35.3023 23.0619L30.9598 12L20.0261 16.393L21.5356 20.2877ZM23.7661 22.6327L22.965 20.5998L12.0077 24.9378L16.295 36L22.5778 33.5025L19.0774 24.4837L23.7661 22.6327ZM31.046 20.6038L20.073 24.9264L24.3601 35.9889L35.3333 31.6663L31.046 20.6038Z" fill="#EBEDEE"/>
</svg>
