<svg width="18" height="23" viewBox="0 0 18 23" fill="none" xmlns="http://www.w3.org/2000/svg">
<path fill-rule="evenodd" clip-rule="evenodd" d="M9 1.75C4.99594 1.75 1.75 4.99594 1.75 9C1.75 9.9073 2.17155 11.0709 2.90354 12.371C3.6242 13.651 4.59493 14.9758 5.58078 16.1823C6.56431 17.386 7.54986 18.4563 8.29057 19.2264C8.5656 19.5124 8.80634 19.7564 9 19.9499C9.19366 19.7564 9.4344 19.5124 9.70943 19.2264C10.4501 18.4563 11.4357 17.386 12.4192 16.1823C13.4051 14.9758 14.3758 13.651 15.0965 12.371C15.8284 11.0709 16.25 9.9073 16.25 9C16.25 4.99594 13.0041 1.75 9 1.75ZM8.48385 21.5441C8.48398 21.5443 8.48409 21.5444 9 21L8.48385 21.5441ZM9.51658 21.5437L9.51799 21.5424L9.52296 21.5377L9.5414 21.5201L9.61096 21.4532C9.67137 21.3948 9.75924 21.3093 9.87064 21.1993C10.0934 20.9794 10.4105 20.6614 10.7906 20.2662C11.5499 19.4767 12.5643 18.3754 13.5808 17.1314C14.5949 15.8902 15.6242 14.4911 16.4035 13.1069C17.1716 11.7428 17.75 10.3018 17.75 9C17.75 4.16751 13.8325 0.25 9 0.25C4.16751 0.25 0.25 4.16751 0.25 9C0.25 10.3018 0.828448 11.7428 1.59646 13.1069C2.3758 14.4911 3.40507 15.8902 4.41922 17.1314C5.43569 18.3754 6.45014 19.4767 7.20943 20.2662C7.58949 20.6614 7.9066 20.9794 8.12936 21.1993C8.24076 21.3093 8.32863 21.3948 8.38904 21.4532L8.4586 21.5201L8.47704 21.5377L8.48385 21.5441L9 22.0333L9.51658 21.5437ZM9 21L9.51658 21.5437C9.51645 21.5439 9.51591 21.5444 9 21ZM9 7.25C8.0335 7.25 7.25 8.0335 7.25 9C7.25 9.9665 8.0335 10.75 9 10.75C9.9665 10.75 10.75 9.9665 10.75 9C10.75 8.0335 9.9665 7.25 9 7.25Z" fill="#9BA4A9"/>
</svg>
