<svg width="80" height="74" viewBox="0 0 80 74" fill="none" xmlns="http://www.w3.org/2000/svg">
<path d="M39.999 51.8242C37.7625 51.8242 35.8877 53.699 35.8877 55.9355C35.8877 58.1721 37.7625 60.0468 39.999 60.0468C42.1533 60.0468 44.1103 58.1721 44.0116 56.0342C44.1103 53.6825 42.252 51.8242 39.999 51.8242Z" fill="#C00D0D"/>
<path d="M78.0533 66.3954C80.6352 61.9388 80.6516 56.627 78.0862 52.1868L52.3329 7.58727C49.7839 3.09772 45.1793 0.433594 40.0155 0.433594C34.8517 0.433594 30.247 3.11417 27.698 7.57083L1.91184 52.2197C-0.65362 56.7092 -0.637174 62.0539 1.96117 66.5106C4.52663 70.9179 9.11485 73.5656 14.2458 73.5656H65.6865C70.8338 73.5656 75.4549 70.885 78.0533 66.3954ZM72.4619 63.1722C71.0312 65.639 68.4986 67.1026 65.67 67.1026H14.2293C11.4336 67.1026 8.91751 65.6719 7.51966 63.2544C6.10537 60.8041 6.08893 57.8768 7.50322 55.41L33.2894 10.7776C34.6872 8.32731 37.1869 6.88013 40.0155 6.88013C42.8276 6.88013 45.3437 8.34375 46.7416 10.7941L72.5112 55.4265C73.8926 57.8275 73.8762 60.7218 72.4619 63.1722Z" fill="#C00D0D"/>
<path d="M38.9796 22.9637C37.0226 23.5229 35.8057 25.2989 35.8057 27.4533C35.9043 28.7524 35.9866 30.0681 36.0852 31.3672C36.3648 36.3173 36.6444 41.1686 36.9239 46.1186C37.0226 47.796 38.3218 49.013 39.9992 49.013C41.6766 49.013 42.9922 47.7138 43.0745 46.02C43.0745 45.0003 43.0745 44.063 43.1731 43.0269C43.354 39.853 43.5514 36.6791 43.7323 33.5051C43.8309 31.4495 44.0118 29.3938 44.1105 27.3382C44.1105 26.5981 44.0118 25.9403 43.7323 25.2825C42.8936 23.4406 40.9366 22.5033 38.9796 22.9637Z" fill="#C00D0D"/>
</svg>
