<svg width="32" height="32" viewBox="0 0 32 32" fill="none" xmlns="http://www.w3.org/2000/svg">
<path d="M16 2.5C23.4138 2.5 29.5 8.50469 29.5 16C29.5 23.4557 23.4619 29.5 16 29.5C8.54725 29.5 2.5 23.4649 2.5 16C2.5 8.54981 8.53762 2.5 16 2.5ZM16 0.5C7.44019 0.5 0.5 7.44269 0.5 16C0.5 24.5623 7.44019 31.5 16 31.5C24.5598 31.5 31.5 24.5623 31.5 16C31.5 7.44269 24.5598 0.5 16 0.5ZM15.2819 8H16.7181C17.1445 8 17.4852 8.35512 17.4674 8.78125L17.0299 19.2812C17.0132 19.683 16.6827 20 16.2806 20H15.7194C15.3173 20 14.9868 19.6829 14.97 19.2812L14.5325 8.78125C14.5148 8.35512 14.8554 8 15.2819 8ZM16 21.25C15.0335 21.25 14.25 22.0335 14.25 23C14.25 23.9665 15.0335 24.75 16 24.75C16.9665 24.75 17.75 23.9665 17.75 23C17.75 22.0335 16.9665 21.25 16 21.25Z" fill="#C00D0D"/>
</svg>
