<svg width="13" height="24" viewBox="0 0 13 24" fill="none" xmlns="http://www.w3.org/2000/svg">
<path d="M3.60451 13.4804C3.51439 13.4804 1.53191 13.4804 0.630789 13.4804C0.150188 13.4804 0 13.301 0 12.8527C0 11.6571 0 10.4316 0 9.23599C0 8.75775 0.180225 8.6083 0.630789 8.6083H3.60451C3.60451 8.51863 3.60451 6.78502 3.60451 5.97799C3.60451 4.78239 3.81477 3.64657 4.41552 2.60042C5.04631 1.52439 5.94743 0.807028 7.08886 0.388569C7.8398 0.11956 8.59074 0 9.40175 0H12.3454C12.766 0 12.9462 0.17934 12.9462 0.597799V4.00525C12.9462 4.42371 12.766 4.60305 12.3454 4.60305C11.5344 4.60305 10.7234 4.60305 9.91239 4.63294C9.10138 4.63294 8.68085 5.02151 8.68085 5.85843C8.65081 6.75513 8.68085 7.62194 8.68085 8.54852H12.1652C12.6458 8.54852 12.826 8.72786 12.826 9.2061V12.8228C12.826 13.301 12.6758 13.4505 12.1652 13.4505C11.0839 13.4505 8.77096 13.4505 8.68085 13.4505V23.1946C8.68085 23.7027 8.53066 23.8821 7.98999 23.8821C6.72841 23.8821 5.49687 23.8821 4.23529 23.8821C3.78473 23.8821 3.60451 23.7027 3.60451 23.2544C3.60451 20.1159 3.60451 13.57 3.60451 13.4804Z" fill="white"/>
</svg>
