<svg width="60" height="55" viewBox="0 0 60 55" fill="none" xmlns="http://www.w3.org/2000/svg">
<path d="M9.11116 44.93L14.6274 47.6875V53.8543C14.6274 54.4871 15.1405 55.0001 15.7732 55.0001H27.9191C28.5518 55.0001 29.0649 54.4871 29.0649 53.8543V38.8954C29.0649 35.3849 26.4314 32.4736 22.9472 32.1244C22.9337 32.1206 18.1003 31.3659 15.8579 29.1236L13.2846 26.5514C12.4188 25.6855 11.268 25.2085 10.0441 25.2085V16.0418C10.0441 13.5146 7.98801 11.4585 5.46077 11.4585C2.93352 11.4585 0.877441 13.5146 0.877441 16.0418V31.6068C0.877441 34.3749 1.64675 37.0828 3.10207 39.4376C4.55728 41.7924 6.63524 43.6917 9.11116 44.93ZM3.1691 16.0418C3.1691 14.7782 4.19714 13.7502 5.46077 13.7502C6.72439 13.7502 7.75243 14.7782 7.75243 16.0418V25.8228C6.35497 26.6308 5.46077 28.1373 5.46077 29.7918C5.46077 31.0155 5.93766 32.1663 6.80357 33.0322L12.6714 38.9012C13.1186 39.3486 13.8442 39.3488 14.2918 38.9013C14.7393 38.4538 14.7394 37.7284 14.2919 37.2808L8.42412 31.4118C7.99099 30.9788 7.75243 30.4034 7.75243 29.7918C7.75243 28.822 8.36625 27.9534 9.28005 27.6306C9.2804 27.6305 9.28074 27.6303 9.28108 27.6302H9.2812C10.0714 27.3501 11.0088 27.5163 11.6644 28.1719L14.2377 30.7442C16.8944 33.4008 22.6989 34.4006 22.7105 34.4038C25.0266 34.6359 26.7732 36.567 26.7732 38.8954V52.7084H16.9191V46.9793C16.9191 46.5452 16.6738 46.1484 16.2857 45.9544L10.1361 42.8802C5.83878 40.7311 3.1691 36.4114 3.1691 31.6068V16.0418Z" fill="black"/>
<path d="M29.0652 26.3542C29.0652 26.9871 29.5783 27.5001 30.211 27.5001C30.8438 27.5001 31.3569 26.9871 31.3569 26.3542V22.9167H35.7431C42.17 22.9167 47.3985 17.6882 47.3985 11.2613V5.72927C47.3985 5.26589 47.1193 4.84801 46.6912 4.67063C46.263 4.49326 45.7702 4.59134 45.4424 4.91905C44.1811 6.1805 42.5042 6.8751 40.7206 6.8751C36.8884 6.8751 33.4825 8.73444 31.3569 11.5981V1.14594C31.3569 0.513099 30.8438 0.000110049 30.211 0.000110049C29.5783 0.000110049 29.0652 0.513099 29.0652 1.14594V7.01489C26.9396 4.15123 23.5337 2.29177 19.7015 2.29177C17.9179 2.29177 16.2409 1.59717 14.9796 0.335724C14.652 0.00801639 14.1591 -0.0901815 13.7309 0.0873078C13.3028 0.264797 13.0236 0.682567 13.0236 1.14594V6.67802C13.0236 13.1049 18.2521 18.3334 24.679 18.3334H29.0652V26.3542ZM40.7206 9.16676C42.2818 9.16676 43.7823 8.77053 45.1068 8.02563V11.2613C45.1068 16.4246 40.9063 20.6251 35.7431 20.6251H33.6485L40.0652 15.8126C40.5714 15.433 40.674 14.7146 40.2943 14.2084C39.9147 13.7022 39.1965 13.5994 38.6902 13.9793L31.3569 19.4792V18.5305C31.3569 13.3674 35.5574 9.16676 40.7206 9.16676ZM15.3152 6.67802V3.4423C16.6399 4.18721 18.1403 4.58344 19.7015 4.58344C24.8647 4.58344 29.0652 8.78405 29.0652 13.9472V14.8959L21.7319 9.39593C21.2256 9.01631 20.5074 9.11887 20.1277 9.62509C19.7481 10.1313 19.8507 10.8496 20.3569 11.2293L26.7735 16.0417H24.679C19.5157 16.0417 15.3152 11.8412 15.3152 6.67802Z" fill="black"/>
<path d="M53.4713 43.3127C54.1041 43.3127 54.6171 42.7997 54.6171 42.1668C54.6171 41.534 54.1041 41.021 53.4713 41.021C52.8384 41.021 52.3254 41.534 52.3254 42.1668C52.3254 42.7997 52.8384 43.3127 53.4713 43.3127Z" fill="black"/>
<path d="M54.9609 11.4585C52.4337 11.4585 50.3776 13.5146 50.3776 16.0418V25.2085C49.1537 25.2085 48.0029 25.6854 47.1373 26.551L44.5635 29.1237C42.3708 31.3167 37.4943 32.1202 37.4828 32.1236C33.9903 32.4737 31.3568 35.3849 31.3568 38.8955V53.8543C31.3568 54.4871 31.8699 55.0001 32.5026 55.0001H44.6485C45.2812 55.0001 45.7943 54.4871 45.7943 53.8543V47.6875L49.5446 45.8127C50.1105 45.5297 50.34 44.8415 50.0571 44.2753C49.7742 43.7094 49.0863 43.4799 48.5199 43.7628L44.136 45.9542C43.7479 46.1485 43.5026 46.5452 43.5026 46.9793V52.7084H33.6485V38.8954C33.6485 36.567 35.3951 34.6359 37.7195 34.4029C37.7311 34.3996 43.3829 33.5452 46.1838 30.7442L48.7575 28.1716C49.4134 27.5157 50.3517 27.3505 51.1405 27.6301H51.1406C51.141 27.6302 51.1413 27.6304 51.1417 27.6305C52.0555 27.9535 52.6693 28.8221 52.6693 29.7918C52.6693 30.4034 52.4307 30.9788 51.9977 31.412L46.1299 37.281C45.6825 37.7285 45.6826 38.4539 46.13 38.9014C46.5773 39.3487 47.303 39.3488 47.7504 38.9013L53.6183 33.0323C54.484 32.1664 54.9609 31.0155 54.9609 29.7918C54.9609 28.1373 54.0667 26.6308 52.6693 25.8228V16.0418C52.6693 14.7782 53.6973 13.7502 54.9609 13.7502C56.2246 13.7502 57.2526 14.7782 57.2526 16.0418V31.6068C57.2526 33.7032 56.7236 35.7845 55.7226 37.6256C55.4202 38.1816 55.6259 38.8773 56.1819 39.1796C56.7378 39.4818 57.4338 39.2762 57.7359 38.7202C58.919 36.5443 59.5443 34.0845 59.5443 31.6068V16.0418C59.5443 13.5146 57.4882 11.4585 54.9609 11.4585Z" fill="black"/>
</svg>
