<svg width="69" height="68" viewBox="0 0 69 68" fill="none" xmlns="http://www.w3.org/2000/svg">
<g clip-path="url(#clip0_596_6990)">
<path d="M34.8773 32.9097L28.6879 36.3743C28.0439 36.7347 27.2735 36.1749 27.4173 35.4511L28.7996 28.494L23.5919 23.6781C23.0501 23.1769 23.3445 22.2713 24.0772 22.1844L31.121 21.3493L34.0919 14.9083C34.401 14.2383 35.3534 14.2383 35.6624 14.9083L38.6333 21.3493L45.6772 22.1844C46.4101 22.2713 46.7044 23.1772 46.1625 23.6781L40.9548 28.494L42.3371 35.4511C42.4809 36.1749 41.7105 36.7347 41.0665 36.3743L34.8773 32.9097Z" fill="white"/>
<path d="M42.5913 10.3858C43.1193 10.653 43.764 10.4408 44.031 9.91259C44.2979 9.38439 44.0861 8.73985 43.5577 8.4729C36.078 4.69332 27.0678 6.13845 21.1376 12.0688C14.2453 18.961 13.5555 29.9507 19.5331 37.6318C19.7444 37.9033 20.0602 38.0454 20.3795 38.0454C20.6096 38.0454 20.8413 37.9717 21.0369 37.8193C21.504 37.4558 21.588 36.7826 21.2246 36.3155C15.9096 29.486 16.5238 19.7136 22.6533 13.5842C27.927 8.30994 35.9395 7.02458 42.5913 10.3858Z" fill="#0A0A0A"/>
<path d="M50.6751 16.5583C50.1469 16.8251 49.9348 17.4695 50.2016 17.998C53.5603 24.6487 52.2743 32.66 47.0015 37.9326C40.8719 44.0619 31.0997 44.6761 24.2702 39.3613C23.803 38.9979 23.1299 39.0819 22.7664 39.549C22.4028 40.0161 22.4869 40.6893 22.954 41.0528C26.4528 43.7756 30.6379 45.115 34.8097 45.115C39.7965 45.115 44.7643 43.2011 48.5172 39.4482C54.4459 33.5194 55.8917 24.511 52.1149 17.0319C51.848 16.5036 51.2036 16.2917 50.6751 16.5583Z" fill="#0A0A0A"/>
<path d="M46.2161 12.8455C46.4837 13.0819 46.748 13.3305 47.0017 13.5841C47.2551 13.8377 47.5037 14.1019 47.7403 14.3695C47.952 14.6091 48.2471 14.7314 48.5437 14.7314C48.7959 14.7314 49.049 14.6428 49.2529 14.4629C49.6963 14.0709 49.738 13.3939 49.3462 12.9504C49.0808 12.65 48.8018 12.3533 48.5172 12.0688C48.2326 11.7842 47.936 11.5053 47.6356 11.2398C47.1922 10.8477 46.5148 10.8897 46.1231 11.333C45.7308 11.7763 45.7725 12.4537 46.2161 12.8455Z" fill="#0A0A0A"/>
<path d="M60.1204 23.879L58.7106 21.5671C58.5249 21.2624 58.4531 20.9006 58.5086 20.5484L58.9288 17.8785C59.143 16.5178 58.584 15.1694 57.4702 14.3591L55.2853 12.7698C54.9965 12.5597 54.7911 12.2529 54.7071 11.9058L54.0708 9.27619C53.7478 7.94049 52.7173 6.91013 51.3817 6.58687L48.752 5.95043C48.4049 5.86636 48.0979 5.66116 47.8879 5.37216L46.2984 3.18673C45.4883 2.07296 44.1397 1.51368 42.7794 1.72804L40.1086 2.14826C39.7563 2.20365 39.3944 2.13193 39.09 1.94625L36.7778 0.536049C35.6056 -0.178749 34.1494 -0.178617 32.9772 0.536049L30.6653 1.94586C30.3608 2.13166 29.9993 2.20325 29.6466 2.14786L26.9764 1.72765C25.6162 1.51355 24.2675 2.07256 23.4573 3.18633L21.8681 5.37123C21.658 5.6601 21.351 5.86543 21.0038 5.9495L18.3743 6.5858C17.0389 6.9088 16.0082 7.9393 15.685 9.27486L15.0485 11.9046C14.9645 12.2517 14.7593 12.5587 14.4703 12.7686L12.2847 14.3581C11.1709 15.1682 10.612 16.5165 10.826 17.8771L11.2462 20.5481C11.3016 20.9005 11.2299 21.2623 11.0442 21.5667L9.63415 23.8791C8.91962 25.0513 8.91962 26.5075 9.63428 27.6795L11.0441 29.9914C11.2299 30.2961 11.3016 30.6579 11.2461 31.0101L10.8259 33.6803C10.6117 35.0408 11.1707 36.3894 12.2844 37.1995L14.4693 38.7888C14.7582 38.9988 14.9635 39.3057 15.0476 39.6529L15.6839 42.2824C16.0069 43.6181 17.0374 44.6485 18.373 44.9717L19.4711 45.2375L12.0397 61.8144C11.8817 62.1667 11.9254 62.5766 12.1543 62.8877C12.383 63.1987 12.7611 63.3627 13.1447 63.3168L19.1242 62.6018L22.5688 67.5413C22.7704 67.8302 23.0995 67.9999 23.4475 67.9999C23.4808 67.9999 23.5145 67.9983 23.548 67.9952C23.9324 67.9591 24.2677 67.7189 24.4256 67.3668L32.0152 50.4359L32.9769 51.0223C33.563 51.3797 34.2202 51.5583 34.8772 51.5583C35.5342 51.5583 36.1914 51.3796 36.7775 51.0223L37.7739 50.4148L45.373 67.3668C45.5309 67.7191 45.8661 67.9591 46.2506 67.9952C46.2842 67.9984 46.3178 67.9999 46.3512 67.9999C46.6993 67.9999 47.0284 67.8302 47.2299 67.5413L50.6745 62.6018L56.654 63.3168C57.0373 63.3623 57.4157 63.1987 57.6444 62.8877C57.8731 62.5766 57.917 62.1667 57.759 61.8144L50.3237 45.2283L51.3805 44.9727C52.716 44.6497 53.7466 43.6192 54.0698 42.2836L54.7063 39.6539C54.7904 39.3068 54.9955 38.9998 55.2845 38.7898L57.47 37.2003C58.5838 36.3903 59.1426 35.042 58.9287 33.6813L58.5084 31.0103C58.4531 30.658 58.5248 30.2962 58.7105 29.9918L60.1205 27.6794C60.8352 26.5072 60.8352 25.0509 60.1204 23.879ZM23.2441 64.7631L20.5143 60.8486C20.288 60.524 19.901 60.3503 19.5081 60.3976L14.7695 60.9641L21.5401 45.8603C21.6639 45.9512 21.775 46.0603 21.8665 46.1863L23.456 48.3718C23.607 48.5793 23.7767 48.7675 23.9617 48.9351L20.398 56.8849C20.156 57.4249 20.3974 58.059 20.9374 58.3011C21.0798 58.365 21.2286 58.3951 21.3751 58.3951C21.7844 58.3951 22.1754 58.1593 22.3535 57.7616L25.9046 49.8401C26.2541 49.8881 26.6139 49.8873 26.975 49.8304L29.6458 49.4102C29.8057 49.3851 29.9674 49.3874 30.1248 49.4134L23.2441 64.7631ZM50.2907 60.3976C49.8974 60.3504 49.5108 60.524 49.2845 60.8486L46.5546 64.7631L39.6711 49.4074C39.8154 49.3878 39.9627 49.3878 40.1084 49.4106L42.7784 49.8308C43.1541 49.8899 43.5285 49.8881 43.8912 49.834L47.445 57.7619C47.6234 58.1597 48.0141 58.3954 48.4234 58.3954C48.5699 58.3954 48.7188 58.3652 48.8611 58.3014C49.4011 58.0594 49.6427 57.4252 49.4005 56.8852L45.8232 48.9051C45.9956 48.745 46.1553 48.5677 46.2975 48.3722L47.8867 46.1872C47.9869 46.0495 48.1096 45.9315 48.2475 45.836L55.0292 60.9643L50.2907 60.3976ZM58.2906 26.5636L56.8806 28.876C56.4309 29.6137 56.257 30.49 56.3913 31.3434L56.8115 34.0143C56.8998 34.576 56.669 35.1326 56.2093 35.467L54.0238 37.0566C53.3242 37.5656 52.8267 38.3089 52.6232 39.1498L51.9868 41.7795C51.8533 42.3308 51.4281 42.7562 50.8766 42.8896L48.2469 43.5259C47.406 43.7294 46.6625 44.2269 46.1535 44.9266L44.5643 47.1115C44.2299 47.5714 43.6734 47.802 43.1115 47.7135L40.4414 47.2933C39.5878 47.159 38.7114 47.3328 37.9736 47.7826L35.6617 49.1924C35.1779 49.4873 34.5765 49.4873 34.0929 49.1924L31.7805 47.7825C31.2055 47.4317 30.5462 47.249 29.8791 47.249C29.6905 47.249 29.5009 47.2636 29.313 47.2932L26.642 47.7134C26.0802 47.8019 25.5237 47.5709 25.1893 47.1112L23.5997 44.9258C23.0907 44.2263 22.3474 43.7288 21.5065 43.5253L18.8769 42.8888C18.3254 42.7554 17.9001 42.3301 17.7667 41.7787L17.1304 39.1491C16.9269 38.3081 16.4295 37.5645 15.7297 37.0556L13.545 35.4662C13.0852 35.1318 12.8545 34.575 12.9429 34.0134L13.3631 31.3432C13.4974 30.4896 13.3237 29.6133 12.8739 28.8755L11.464 26.5634C11.1689 26.0795 11.1689 25.4783 11.464 24.9946L12.8741 22.6822C13.3238 21.9445 13.4977 21.0682 13.3634 20.2148L12.9432 17.5439C12.8549 16.9823 13.0857 16.4256 13.5454 16.0912L15.7309 14.5016C16.4304 13.9926 16.928 13.2493 17.1314 12.4084L17.7679 9.77875C17.9013 9.22745 18.3266 8.80205 18.878 8.66857L21.5077 8.03227C22.3487 7.8288 23.0922 7.33128 23.6011 6.63162L25.1904 4.44672C25.5248 3.98692 26.0813 3.75596 26.6432 3.84455L29.3134 4.26477C30.1671 4.39931 31.0436 4.22532 31.7812 3.77549L34.0931 2.36568C34.5769 2.07083 35.1783 2.07083 35.6619 2.36568L37.9743 3.77562C38.7119 4.22559 39.5885 4.39944 40.4418 4.26503L43.1128 3.84481C43.6743 3.75676 44.2311 3.98732 44.5655 4.44699L46.1551 6.63242C46.6641 7.33195 47.4074 7.82946 48.2483 8.03293L50.878 8.66937C51.4294 8.80285 51.8547 9.22811 51.9881 9.77955L52.6244 12.4091C52.8279 13.2501 53.3253 13.9937 54.0251 14.5026L56.21 16.0919C56.6698 16.4263 56.9005 16.983 56.812 17.5447L56.3918 20.2149C56.2575 21.0685 56.4313 21.9448 56.8811 22.6826L58.2909 24.9947C58.5857 25.4786 58.5857 26.0798 58.2906 26.5636Z" fill="#0A0A0A"/>
<path d="M22.8642 24.4648L27.6315 28.8735L26.3661 35.2424C26.2172 35.9922 26.5089 36.7371 27.1274 37.1862C27.4686 37.4341 27.8645 37.5596 28.2629 37.5596C28.5869 37.5596 28.9123 37.4767 29.2112 37.3093L34.8773 34.1379L40.5433 37.3093C41.2104 37.6828 42.0088 37.6357 42.6272 37.1864C43.2457 36.7371 43.5373 35.9921 43.3883 35.2424L42.1229 28.8736L46.8902 24.4649C47.4515 23.946 47.6533 23.1718 47.4172 22.4448C47.181 21.7178 46.5628 21.2102 45.8036 21.1201L39.3555 20.3555L36.6357 14.4593C36.3155 13.7652 35.6417 13.334 34.8773 13.334C34.1128 13.334 33.439 13.7652 33.1188 14.4593L30.3991 20.3557L23.9509 21.1203C23.1917 21.2103 22.5734 21.7179 22.3374 22.4449C22.1014 23.1717 22.3032 23.9459 22.8642 24.4648ZM31.2472 22.4133C31.6173 22.3695 31.938 22.1364 32.0942 21.7981L34.8773 15.7643L37.6604 21.7981C37.8166 22.1364 38.1372 22.3695 38.5073 22.4133L45.106 23.1957L40.2274 27.7072C39.9538 27.9603 39.8313 28.3373 39.9038 28.7028L41.1988 35.2201L35.4004 31.9745C35.2379 31.8835 35.0575 31.838 34.877 31.838C34.6965 31.838 34.5163 31.8834 34.3536 31.9745L28.5553 35.2201L29.8502 28.7028C29.923 28.3372 29.8004 27.9603 29.5266 27.7072L24.6483 23.1957L31.2472 22.4133Z" fill="#0A0A0A"/>
</g>
<defs>
<clipPath id="clip0_596_6990">
<rect width="68" height="68" fill="white" transform="translate(0.877441)"/>
</clipPath>
</defs>
</svg>
