<svg width="68" height="68" viewBox="0 0 68 68" fill="none" xmlns="http://www.w3.org/2000/svg">
<g clip-path="url(#clip0_596_6973)">
<path fill-rule="evenodd" clip-rule="evenodd" d="M65.5847 58.364C65.2903 58.7575 64.8954 58.9574 64.4067 58.9574H49.5838C49.3119 57.3528 48.7962 55.8102 48.0593 54.379C49.9228 51.6583 52.9529 50.0512 56.2788 50.0512C60.6788 50.0512 64.5009 52.8708 65.8041 57.067C65.9481 57.5338 65.8729 57.9705 65.5847 58.364ZM47.5955 62.9989C47.5955 64.586 46.3042 65.8768 44.719 65.8768H23.2817C21.6946 65.8768 20.4033 64.586 20.4033 62.9996V60.0772C21.1726 53.146 27.0055 47.9259 33.9969 47.9246H33.9994H34.0031C40.9932 47.9258 46.8267 53.1458 47.5955 60.0772V62.9989ZM18.4169 58.9568H3.59078C3.10084 58.9568 2.70612 58.7569 2.41526 58.3634C2.12586 57.9698 2.05122 57.5338 2.19599 57.0663C3.49609 52.8701 7.32388 50.0512 11.72 50.0512C15.0471 50.0512 18.0766 51.6578 19.9401 54.3783C19.2026 55.8095 18.6876 57.3521 18.4169 58.9568ZM11.72 38.8968C14.2106 38.8968 16.2357 40.9219 16.2357 43.4113C16.2357 45.9008 14.2106 47.9259 11.72 47.9259C9.2312 47.9259 7.20541 45.9008 7.20541 43.4113C7.20554 40.9219 9.2312 38.8968 11.72 38.8968ZM27.6077 39.4074C27.6077 35.8829 30.475 33.015 33.9994 33.015C37.5238 33.015 40.3918 35.8829 40.3918 39.4074C40.3918 42.9307 37.5258 45.7973 34.0031 45.7992H33.9994H33.9969C30.4736 45.7973 27.6077 42.9307 27.6077 39.4074ZM56.2788 38.8974C58.7676 38.8974 60.7915 40.9226 60.7915 43.412C60.7915 45.9013 58.7676 47.9266 56.2788 47.9266C53.7901 47.9266 51.7643 45.9014 51.7643 43.412C51.7643 40.9226 53.7899 38.8974 56.2788 38.8974ZM67.8342 56.4385C67.0823 54.0242 65.5534 51.8563 63.5234 50.3336C62.5459 49.6049 61.4869 49.0373 60.3716 48.6356C61.9192 47.4195 62.9155 45.5304 62.9155 43.4119C62.9155 39.7508 59.9391 36.7719 56.2787 36.7719C52.6169 36.7719 49.6394 39.7508 49.6394 43.4119C49.6394 45.5278 50.635 47.4144 52.1826 48.6313C50.1093 49.3713 48.2728 50.6714 46.8648 52.424C46.2075 51.5041 45.4494 50.6495 44.5978 49.8788C42.8791 48.3255 40.8629 47.1845 38.693 46.5102C40.9944 44.9838 42.5164 42.3703 42.5164 39.4073C42.5164 34.711 38.6955 30.8902 33.9993 30.8902C29.303 30.8902 25.4821 34.711 25.4821 39.4073C25.4821 42.3703 27.0042 44.9838 29.3067 46.5102C27.1357 47.1844 25.1193 48.3254 23.4024 49.8788C22.5496 50.6495 21.7914 51.5035 21.1336 52.4233C19.7268 50.6714 17.8904 49.3706 15.8176 48.6306C17.3634 47.4144 18.3609 45.5272 18.3609 43.4112C18.3609 39.7501 15.3815 36.7719 11.7197 36.7719C8.05993 36.7719 5.08041 39.7501 5.08041 43.4112C5.08041 45.5297 6.07916 47.4188 7.62935 48.635C6.51093 49.0373 5.45069 49.6042 4.47757 50.3336C2.44554 51.8557 0.914214 54.0236 0.166081 56.4372C-0.178567 57.5525 0.0125501 58.6848 0.705566 59.6245C1.39739 60.5638 2.4231 61.0814 3.59039 61.0814H18.2781V62.9993C18.2781 65.7576 20.5225 68.002 23.2814 68.002H44.7187C47.4756 68.002 49.72 65.7576 49.72 62.9993V61.082H64.4064C65.5781 61.082 66.5994 60.5645 67.295 59.6245C67.9845 58.6849 68.1788 57.5532 67.8342 56.4385ZM7.56453 16.7572C8.16352 16.7277 8.68799 16.3461 8.90169 15.7854L10.4662 11.6637L12.0309 15.7854C12.2433 16.3463 12.7696 16.7278 13.3686 16.7572L17.7709 16.9715L14.3353 19.7335C13.8679 20.1095 13.6667 20.7267 13.8253 21.305L14.9807 25.5595L11.2927 23.1445C11.0414 22.9804 10.7532 22.8983 10.4662 22.8983C10.1787 22.8983 9.89167 22.9804 9.64039 23.1445L5.95113 25.5593L7.10779 21.3055C7.26571 20.7266 7.06516 20.1099 6.59779 19.7334L3.16034 16.9714L7.56453 16.7572ZM0.563722 17.6105L4.95225 21.1369L3.47484 26.5688C3.30935 27.1791 3.53248 27.8132 4.04381 28.1854C4.55633 28.5571 5.22863 28.5734 5.75696 28.2269L10.4664 25.144L15.1764 28.2269C15.4296 28.3936 15.7166 28.4756 16.0036 28.4756C16.3132 28.4756 16.6226 28.3785 16.8884 28.1856C17.4009 27.814 17.624 27.1793 17.4579 26.569L15.981 21.1371L20.3677 17.6106C20.8608 17.2153 21.0531 16.5705 20.8576 15.9684C20.6628 15.3669 20.1289 14.959 19.4967 14.9282L13.8743 14.6538L11.8768 9.39181C11.6525 8.80092 11.0985 8.41869 10.4664 8.41869C9.83417 8.41869 9.28021 8.80092 9.05589 9.39181L7.05839 14.6538L1.4367 14.9282C0.804511 14.9589 0.269409 15.3674 0.0739094 15.9684C-0.121059 16.5698 0.0712533 17.2146 0.563722 17.6105ZM54.6309 16.7572C55.2299 16.7277 55.7557 16.3461 55.968 15.7854L57.5326 11.6637L59.0984 15.7854C59.3127 16.3463 59.8328 16.7278 60.4343 16.7572L64.8391 16.9715L61.4055 19.7335C60.9356 20.1095 60.7351 20.7267 60.8917 21.305L62.0509 25.5595L58.3584 23.1447C58.1078 22.9805 57.8208 22.8984 57.5326 22.8984C57.2456 22.8984 56.9574 22.9805 56.7068 23.1447L53.018 25.5595L54.1753 21.3056C54.3319 20.7267 54.1315 20.11 53.6634 19.7335L50.2278 16.9715L54.6309 16.7572ZM47.6301 17.6105L52.0181 21.1369L50.5412 26.5688C50.3752 27.1791 50.5988 27.8132 51.1108 28.1854C51.6222 28.5571 52.2945 28.5734 52.8233 28.2269L57.5327 25.144L62.2453 28.2269C62.4959 28.3936 62.7841 28.4756 63.0723 28.4756C63.3794 28.4756 63.6927 28.3785 63.9558 28.1856C64.4696 27.814 64.6889 27.1793 64.526 26.569L63.0472 21.1371L67.4333 17.6106C67.9283 17.2146 68.1227 16.5705 67.9283 15.9689C67.7278 15.3674 67.1952 14.9589 66.5624 14.9282L60.942 14.6538L58.9432 9.39181C58.7189 8.80092 58.165 8.41869 57.5327 8.41869C56.9005 8.41869 56.3466 8.80092 56.1222 9.39181L54.1247 14.6538L48.5031 14.9282C47.8709 14.9589 47.337 15.3674 47.1415 15.9689C46.9458 16.5705 47.1376 17.2146 47.6301 17.6105ZM22.6677 5.92421C23.0599 5.48805 23.7317 5.45299 24.1678 5.84585L28.5132 9.75824C28.9487 10.1504 28.9849 10.8222 28.5915 11.2589C28.3817 11.4913 28.0922 11.6104 27.8014 11.6104C27.549 11.6104 27.294 11.5201 27.0909 11.3372L22.7462 7.42485C22.3092 7.032 22.2748 6.36023 22.6677 5.92421ZM39.4074 11.2589C39.0145 10.8222 39.0503 10.1504 39.4858 9.75824L43.8318 5.84585C44.2673 5.45299 44.9389 5.48805 45.3324 5.92421C45.7241 6.36023 45.6896 7.032 45.2529 7.42485L40.9088 11.3372C40.7052 11.5203 40.4502 11.6104 40.1976 11.6104C39.9068 11.6104 39.6174 11.4914 39.4074 11.2589ZM32.9368 4.96357V1.06446C32.9368 0.4773 33.4124 0.00183105 33.9994 0.00183105C34.5866 0.00183105 35.062 0.477433 35.062 1.06446V4.96371C35.062 5.55021 34.5864 6.02581 33.9994 6.02581C33.4122 6.02567 32.9368 5.55007 32.9368 4.96357ZM31.0977 16.7572C31.6967 16.7277 32.2224 16.3461 32.4349 15.7854L33.9994 11.6637L35.5653 15.7859C35.7778 16.3468 36.3021 16.7277 36.9018 16.7572L41.3053 16.9715L37.8685 19.7335C37.401 20.1095 37.1999 20.7267 37.3585 21.305L38.5152 25.5595L34.8252 23.1447C34.5746 22.9805 34.2876 22.8991 33.9994 22.8991C33.7124 22.8991 33.4249 22.9805 33.1736 23.1447L29.485 25.5595L30.641 21.3056C30.7989 20.7267 30.5983 20.1095 30.1303 19.7335L26.6935 16.9715L31.0977 16.7572ZM23.6082 15.9689C23.4127 16.5705 23.6044 17.2146 24.0969 17.6106L28.4849 21.1371L27.008 26.569C26.842 27.1793 27.0657 27.8133 27.5782 28.1856C28.0895 28.5572 28.7611 28.5735 29.29 28.227L33.9994 25.1442L38.7095 28.227C38.9638 28.3937 39.2496 28.4758 39.5365 28.4758C39.8461 28.4758 40.1569 28.3787 40.4218 28.1857C40.9337 27.8136 41.1568 27.1794 40.9908 26.5691L39.5139 21.1372L43.9019 17.6108C44.395 17.2147 44.5873 16.5706 44.3918 15.9691C44.197 15.3676 43.6612 14.959 43.0309 14.9284L37.4074 14.654L35.4099 9.39194C35.1856 8.80106 34.6317 8.41882 33.9994 8.41882C33.3672 8.41882 32.8133 8.80106 32.5889 9.39194L30.5914 14.6546L24.9697 14.9285C24.3376 14.9589 23.8036 15.3674 23.6082 15.9689Z" fill="#0A0A0A"/>
</g>
<defs>
<clipPath id="clip0_596_6973">
<rect width="68" height="68" fill="white"/>
</clipPath>
</defs>
</svg>
