<svg width="76" height="55" viewBox="0 0 76 55" fill="none" xmlns="http://www.w3.org/2000/svg">
<path d="M61.548 30.3402L55.456 36.4324C55.3764 36.336 55.2921 36.2423 55.202 36.1521L47.3342 28.2844C46.8991 27.8495 46.1941 27.8495 45.7591 28.2844C45.3242 28.7194 45.3242 29.4246 45.7591 29.8594L53.6268 37.7271C54.3032 38.4034 54.3032 39.5039 53.627 40.1801C52.9503 40.8564 51.8499 40.8566 51.1738 40.1801L46.8019 35.8082C46.3668 35.3733 45.6617 35.3733 45.2267 35.8082C44.7918 36.2432 44.7918 36.9484 45.2267 37.3832L49.5987 41.7551C49.5988 41.7553 49.5991 41.7554 49.5993 41.7557C49.9266 42.0833 50.1068 42.5186 50.1068 42.9817C50.1068 43.445 49.9264 43.8806 49.5987 44.2083C49.2711 44.5359 48.8355 44.7163 48.3722 44.7163C47.9089 44.7163 47.4734 44.5359 47.1458 44.2083L42.7738 39.8364C42.3387 39.4014 41.6337 39.4014 41.1987 39.8364C40.7638 40.2713 40.7638 40.9765 41.1987 41.4114L45.5707 45.7833C46.2471 46.4596 46.2471 47.5601 45.5708 48.2363C45.2431 48.5641 44.8074 48.7445 44.3441 48.7445C43.8807 48.7445 43.4452 48.5641 43.1176 48.2365L38.7457 43.8645C38.3106 43.4296 37.6055 43.4296 37.1706 43.8645C36.7356 44.2995 36.7356 45.0047 37.1706 45.4395L41.5425 49.8114C42.2189 50.4877 42.2189 51.5882 41.5425 52.2645C41.2149 52.5921 40.7794 52.7725 40.316 52.7725C39.8527 52.7725 39.4172 52.5921 39.0896 52.2645L36.2573 49.4322C37.1597 47.9283 36.964 45.9446 35.6689 44.6497L35.6018 44.5825C34.739 43.7198 33.5702 43.3451 32.4413 43.4578C32.3779 42.5131 31.9807 41.6334 31.3047 40.9574C30.7819 40.4345 30.1466 40.0909 29.476 39.9264C29.6469 39.4828 29.7373 39.0072 29.7373 38.5176C29.7373 37.4718 29.3301 36.4888 28.5908 35.7494C27.8514 35.01 26.8683 34.6029 25.8226 34.6029C25.2267 34.6029 24.6514 34.7355 24.1297 34.9861C23.9542 34.3627 23.6226 33.7745 23.133 33.2849C21.6069 31.7587 19.1233 31.7588 17.5969 33.2849L17.1376 33.7442L16.8027 33.4094C16.2641 32.8708 15.9675 32.1549 15.9675 31.3932V28.4886C15.9675 28.1932 15.8502 27.9099 15.6414 27.7011L10.8868 22.9465L12.2237 21.6094C12.6587 21.1745 12.6587 20.4692 12.2236 20.0344C11.7888 19.5993 11.0836 19.5995 10.6486 20.0344L8.85773 21.8255C8.52005 22.1632 7.97031 22.1633 7.63262 21.8255L1.90133 16.094C1.46638 15.6591 0.761313 15.6591 0.326213 16.094C-0.108738 16.529 -0.108738 17.2341 0.326213 17.669L6.05765 23.4004C6.66085 24.0035 7.45294 24.3049 8.24503 24.3049C8.49866 24.3049 8.75156 24.2705 8.99896 24.2087L13.7401 28.9497V31.3931C13.7401 32.7496 14.2684 34.0249 15.2276 34.9842L15.5626 35.3192L15.1898 35.6919C14.4505 36.4313 14.0431 37.4144 14.0431 38.4601C14.0431 39.5058 14.4503 40.4889 15.1897 41.2281C15.953 41.9912 16.9555 42.3729 17.958 42.3729C17.9739 42.3729 17.9898 42.372 18.0057 42.3717C18.0055 42.3882 18.0045 42.4045 18.0045 42.4211C18.0045 43.4669 18.4117 44.4499 19.151 45.1891C19.8904 45.9285 20.8736 46.3357 21.9192 46.3357C21.9357 46.3357 21.9522 46.3347 21.9686 46.3345C21.9563 47.3528 22.3369 48.375 23.1121 49.1502C23.8754 49.9133 24.8779 50.295 25.8804 50.295C25.8969 50.295 25.9134 50.2939 25.9297 50.2938C25.9169 51.3126 26.2975 52.3356 27.0733 53.1114L27.1404 53.1785C27.8798 53.9179 28.8628 54.3251 29.9084 54.3251C30.9541 54.3251 31.9372 53.9179 32.6766 53.1785L34.7652 51.09L37.5148 53.8396C38.2631 54.588 39.258 55.0001 40.3163 55.0001C41.3747 55.0001 42.3696 54.588 43.1179 53.8396C43.9075 53.05 44.2924 52.0074 44.2749 50.9703C44.298 50.9708 44.321 50.972 44.3444 50.972C45.4027 50.972 46.3976 50.5599 47.1461 49.8114C47.9361 49.0214 48.321 47.9779 48.303 46.9404C48.3262 46.9408 48.3494 46.942 48.3725 46.942C49.3869 46.9419 50.4017 46.5556 51.1739 45.7834C51.9224 45.0352 52.3345 44.0402 52.3345 42.9819C52.3345 42.9586 52.3331 42.9355 52.3328 42.9124C52.3554 42.9128 52.378 42.914 52.4005 42.914C53.4151 42.914 54.4298 42.5278 55.2023 41.7554C56.0422 40.9155 56.4242 39.7893 56.3509 38.6882L63.1236 31.9155C63.5585 31.4805 63.5585 30.7753 63.1236 30.3405C62.6882 29.9053 61.9831 29.9053 61.548 30.3402ZM16.7647 39.653C16.446 39.3343 16.2706 38.9106 16.2706 38.4601C16.2706 38.0094 16.4461 37.5857 16.7648 37.2671L19.1718 34.8601C19.5009 34.5311 19.9329 34.3666 20.365 34.3666C20.797 34.3666 21.229 34.531 21.5579 34.8599C22.2157 35.5179 22.2157 36.5883 21.5579 37.246L19.1507 39.6531C18.4929 40.311 17.4227 40.3108 16.7647 39.653ZM21.9189 44.1084C21.4684 44.1084 21.0445 43.9328 20.7259 43.6142C20.4072 43.2955 20.2318 42.8718 20.2318 42.4213C20.2318 41.9707 20.4073 41.5469 20.726 41.2283L23.1332 38.8211L24.6297 37.3245C24.9484 37.0059 25.3719 36.8303 25.8226 36.8303C26.2733 36.8303 26.697 37.0059 27.0155 37.3245C27.3342 37.6432 27.5097 38.067 27.5097 38.5176C27.5097 38.9681 27.3342 39.3919 27.0155 39.7106L23.1118 43.6143C22.7931 43.9328 22.3696 44.1084 21.9189 44.1084ZM24.6869 47.5752C24.0291 46.9174 24.0291 45.847 24.6869 45.1891L27.3437 42.5322C27.6726 42.2034 28.1046 42.0391 28.5367 42.0391C28.9687 42.0391 29.4008 42.2036 29.7296 42.5324C30.0483 42.851 30.2238 43.2749 30.2238 43.7254C30.2238 44.1758 30.0486 44.5992 29.7302 44.9177L27.0728 47.5751C26.4151 48.2331 25.3448 48.2331 24.6869 47.5752ZM31.101 51.6034C30.7823 51.9221 30.3588 52.0976 29.9081 52.0976C29.4576 52.0976 29.0337 51.9221 28.7152 51.6034L28.6482 51.5364C27.9902 50.8786 27.9902 49.8082 28.6482 49.1503L31.3049 46.4937C31.3058 46.4928 31.3065 46.4919 31.3073 46.4912L31.6406 46.1577C31.9697 45.8287 32.4017 45.6643 32.8338 45.6643C33.2658 45.6643 33.6979 45.8289 34.0267 46.1577L34.0937 46.2246C34.7517 46.8825 34.7517 47.9528 34.0937 48.6107L31.101 51.6034Z" fill="#0A0A0A"/>
<path d="M75.5514 20.7866C75.1164 20.3516 74.4114 20.3515 73.9763 20.7866L69.8026 24.9603C69.7451 25.0178 69.6505 25.0186 69.5919 24.9627L54.8368 10.8683C54.8063 10.8391 54.7906 10.8031 54.7901 10.7609C54.7897 10.7187 54.8047 10.6822 54.8344 10.6525L63.5858 1.90119C64.0208 1.46623 64.0208 0.761016 63.5858 0.326213C63.1509 -0.108738 62.4458 -0.108738 62.0107 0.326213L53.2593 9.07751C52.8028 9.53414 52.5555 10.1411 52.563 10.7866C52.569 11.3069 52.7425 11.7968 53.053 12.2015L49.048 16.1291L45.2745 14.0246C44.7814 13.7494 44.2223 13.604 43.6575 13.604H32.936L32.12 12.7882C31.3617 12.03 30.4692 11.452 29.4673 11.0702L26.4993 9.93939L25.1278 8.56787C25.837 7.38003 25.6843 5.81694 24.6625 4.79527L20.1935 0.326213C19.7585 -0.108738 19.0534 -0.108738 18.6183 0.326213C18.1834 0.761165 18.1834 1.46638 18.6183 1.90119L23.0874 6.37024C23.4251 6.70792 23.4251 7.25752 23.0874 7.59535L14.0048 16.6779C13.5699 17.1129 13.5699 17.8181 14.0048 18.2529C14.2224 18.4703 14.5075 18.5792 14.7924 18.5792C15.0774 18.5792 15.3625 18.4705 15.5801 18.2529L23.6214 10.2116L25.0926 11.6828C25.2036 11.7938 25.337 11.8801 25.4837 11.9361L28.6743 13.1517C29.3628 13.4141 29.9773 13.8088 30.503 14.3235C30.4354 14.3804 30.369 14.4392 30.3057 14.5024L26.07 18.7385C25.2293 19.579 24.7665 20.6968 24.7665 21.8855C24.7665 23.0742 25.2293 24.1918 26.0698 25.0325C26.9384 25.901 28.0746 26.3416 29.2158 26.3416C30.2131 26.3416 31.2141 26.005 32.0432 25.3234L35.2487 22.6881H38.5876L42.4029 26.5033C42.6204 26.7207 42.9055 26.8296 43.1905 26.8296C43.4755 26.8296 43.7606 26.7209 43.9781 26.5033C44.4131 26.0684 44.4131 25.3632 43.9781 24.9284L41.2219 22.1721C41.3322 21.9992 41.3969 21.7946 41.3969 21.5744C41.3969 20.9593 40.8984 20.4606 40.2832 20.4606H34.8495C34.5916 20.4606 34.3415 20.5502 34.1422 20.7141L30.6286 23.6027C29.7401 24.3329 28.4578 24.2704 27.645 23.4575C27.225 23.0375 26.9938 22.4793 26.9938 21.8856C26.9938 21.2919 27.225 20.7336 27.645 20.3138L31.8809 16.0777C32.0393 15.9191 32.2502 15.8318 32.4744 15.8318H43.6574C43.8431 15.8318 44.027 15.8796 44.1893 15.9702L48.3627 18.2978C48.9822 18.6436 49.77 18.5389 50.2794 18.0412L54.6418 13.7628L66.6525 25.2356L64.9041 26.984C64.4691 27.419 64.4691 28.1242 64.9042 28.559C65.1216 28.7765 65.4067 28.8852 65.6917 28.8852C65.9767 28.8852 66.2618 28.7765 66.4793 28.559L68.2781 26.7602C68.6963 27.0702 69.1954 27.2265 69.6954 27.2265C70.3066 27.2265 70.9175 26.9956 71.3775 26.5354L75.5514 22.3619C75.9862 21.9266 75.9862 21.2215 75.5514 20.7866Z" fill="#0A0A0A"/>
</svg>
