<svg width="64" height="53" viewBox="0 0 64 53" fill="none" xmlns="http://www.w3.org/2000/svg">
<path d="M60.0117 16.6852H57.1599C59.11 14.9321 60.339 12.3919 60.339 9.56944C60.339 4.29276 56.0462 0 50.7696 0C45.493 0 41.2001 4.29276 41.2001 9.56944C41.2001 12.3919 42.4292 14.9321 44.3793 16.6852H37.8051C37.1275 16.6852 36.5782 17.2346 36.5782 17.912C36.5782 18.5895 37.1275 19.1389 37.8051 19.1389H60.0117C60.6882 19.1389 61.2386 19.6893 61.2386 20.3657C61.2386 21.0422 60.6882 21.5926 60.0117 21.5926H4.558C3.88151 21.5926 3.33115 21.0422 3.33115 20.3657C3.33115 19.6893 3.88151 19.1389 4.558 19.1389H26.7634C27.441 19.1389 27.9903 18.5895 27.9903 17.912C27.9903 17.2346 27.441 16.6852 26.7634 16.6852H20.1903C22.1404 14.9321 23.3694 12.3919 23.3694 9.56944C23.3694 4.29276 19.0766 0 13.8 0C8.52343 0 4.23055 4.29276 4.23055 9.56944C4.23055 12.3919 5.45961 14.9321 7.40969 16.6852H4.558C2.52854 16.6852 0.877441 18.3363 0.877441 20.3657C0.877441 22.3952 2.52854 24.0463 4.558 24.0463H30.136L14.1373 51.1495C13.9134 51.5288 13.9099 51.999 14.1284 52.3814C14.3468 52.764 14.7534 53 15.1938 53H49.376C49.8164 53 50.223 52.764 50.4414 52.3814C50.6598 51.999 50.6563 51.5288 50.4326 51.1495L34.4337 24.0463H60.0117C62.0412 24.0463 63.6923 22.3952 63.6923 20.3657C63.6923 18.3363 62.0412 16.6852 60.0117 16.6852ZM43.6538 9.56944C43.6538 5.64585 46.846 2.4537 50.7696 2.4537C54.6932 2.4537 57.8853 5.64585 57.8853 9.56944C57.8853 13.493 54.6932 16.6852 50.7696 16.6852C46.846 16.6852 43.6538 13.493 43.6538 9.56944ZM6.68438 9.56944C6.68438 5.64585 9.87652 2.4537 13.8001 2.4537C17.7237 2.4537 20.9159 5.64585 20.9159 9.56944C20.9159 13.493 17.7237 16.6852 13.8001 16.6852C9.87652 16.6852 6.68438 13.493 6.68438 9.56944ZM17.3427 50.5463L32.2849 25.2329L47.227 50.5463H17.3427Z" fill="#0A0A0A"/>
<path d="M32.2848 19.1389C32.9624 19.1389 33.5117 18.5896 33.5117 17.912C33.5117 17.2345 32.9624 16.6852 32.2848 16.6852C31.6073 16.6852 31.058 17.2345 31.058 17.912C31.058 18.5896 31.6073 19.1389 32.2848 19.1389Z" fill="#0A0A0A"/>
</svg>
