<svg width="24" height="24" viewBox="0 0 24 24" fill="none" xmlns="http://www.w3.org/2000/svg">
<path fill-rule="evenodd" clip-rule="evenodd" d="M6.75 8C6.75 6.97236 6.76553 5.68186 7.39312 4.63587C7.97061 3.67338 9.18264 2.75 12 2.75C14.8174 2.75 16.0294 3.67338 16.6069 4.63587C17.2345 5.68186 17.25 6.97236 17.25 8C17.25 8.41421 17.5858 8.75 18 8.75C18.7133 8.75 19.8 8.97016 20.6868 9.60865C21.5353 10.2196 22.25 11.2444 22.25 13C22.25 14.1955 21.9184 15.0384 21.4626 15.6393C21.0008 16.2481 20.3758 16.6545 19.7264 16.9089C19.3408 17.06 19.1506 17.4951 19.3017 17.8808C19.4527 18.2665 19.8879 18.4567 20.2736 18.3056C21.1179 17.9748 21.993 17.4221 22.6577 16.5458C23.3284 15.6616 23.75 14.4934 23.75 13C23.75 10.7556 22.798 9.2804 21.5632 8.39135C20.6493 7.73336 19.609 7.41468 18.7437 7.30083C18.7175 6.32248 18.5827 5.01348 17.8931 3.86413C16.9706 2.32662 15.1826 1.25 12 1.25C8.81736 1.25 7.02939 2.32662 6.10688 3.86413C5.41727 5.01348 5.28248 6.32248 5.25627 7.30083C4.39099 7.41468 3.35065 7.73336 2.43677 8.39135C1.20198 9.2804 0.25 10.7556 0.25 13C0.25 14.4934 0.67158 15.6616 1.34232 16.5458C2.00705 17.4221 2.88209 17.9748 3.72645 18.3056C4.11213 18.4567 4.54726 18.2665 4.69833 17.8808C4.84941 17.4951 4.65923 17.06 4.27355 16.9089C3.62419 16.6545 2.99923 16.2481 2.53739 15.6393C2.08156 15.0384 1.75 14.1955 1.75 13C1.75 11.2444 2.46468 10.2196 3.31323 9.60865C4.20002 8.97016 5.28668 8.75 6 8.75C6.41421 8.75 6.75 8.41421 6.75 8ZM16.0303 15.9697L12.5303 12.4697C12.2374 12.1768 11.7626 12.1768 11.4697 12.4697L7.96967 15.9697C7.67678 16.2626 7.67678 16.7374 7.96967 17.0303C8.26256 17.3232 8.73744 17.3232 9.03033 17.0303L11.25 14.8107V22C11.25 22.4142 11.5858 22.75 12 22.75C12.4142 22.75 12.75 22.4142 12.75 22V14.8107L14.9697 17.0303C15.2626 17.3232 15.7374 17.3232 16.0303 17.0303C16.3232 16.7374 16.3232 16.2626 16.0303 15.9697Z" fill="black"/>
</svg>
