<svg width="21" height="20" viewBox="0 0 21 20" fill="none" xmlns="http://www.w3.org/2000/svg">
<path fill-rule="evenodd" clip-rule="evenodd" d="M20.25 1.99977C20.2499 1.03336 19.4664 0.25 18.5 0.25H2.4999C1.53341 0.25 0.749905 1.0335 0.749905 2V3.58579C0.749905 4.04992 0.934278 4.49503 1.26247 4.82322L7.67669 11.2374C7.72357 11.2843 7.74991 11.3479 7.74991 11.4142L7.74991 17.2192C7.74991 18.0222 8.29643 18.7222 9.07547 18.917L11.0755 19.417C12.18 19.6931 13.2499 18.8577 13.2499 17.7192L13.2499 11.4142C13.2499 11.3479 13.2762 11.2843 13.3231 11.2374L19.7376 4.8233C20.0659 4.49505 20.2503 4.04982 20.2502 3.5856L20.25 1.99977ZM18.5 1.75C18.6381 1.75 18.75 1.86191 18.75 1.99997L18.7502 3.58579C18.7503 3.65211 18.7239 3.71571 18.677 3.76261L12.2625 10.1768C11.9343 10.505 11.7499 10.9501 11.7499 11.4142L11.7499 17.7192C11.7499 17.8819 11.5971 18.0012 11.4393 17.9618L9.43927 17.4618C9.32798 17.4339 9.24991 17.3339 9.24991 17.2192L9.24991 11.4142C9.24991 10.9501 9.06553 10.505 8.73734 10.1768L2.32313 3.76256C2.27624 3.71568 2.2499 3.65209 2.2499 3.58579V2C2.2499 1.86193 2.36183 1.75 2.4999 1.75H18.5Z" fill="#0A0A0A"/>
</svg>
