<svg width="25" height="24" viewBox="0 0 25 24" fill="none" xmlns="http://www.w3.org/2000/svg">
<g clip-path="url(#clip0_1213_3251)">
<path d="M24.9226 7.02139C24.8664 5.75245 24.6602 4.88006 24.3648 4.12412C24.06 3.32171 23.5912 2.60332 22.977 2.00611C22.3768 1.39961 21.6501 0.928337 20.8531 0.629826C20.089 0.335871 19.2169 0.130667 17.9417 0.0747189C16.6569 0.0140326 16.2491 0 12.9906 0C9.73218 0 9.32432 0.0140326 8.04435 0.0699807C6.76913 0.125929 5.89244 0.331315 5.13295 0.625088C4.3264 0.928337 3.60445 1.39487 3.0043 2.00611C2.39481 2.60332 1.92139 3.32645 1.62122 4.11956C1.32581 4.88006 1.11959 5.74771 1.06337 7.01665C1.00238 8.29508 0.988281 8.70093 0.988281 11.9434C0.988281 15.1858 1.00238 15.5917 1.05861 16.8653C1.11483 18.1343 1.32123 19.0067 1.61664 19.7626C1.92139 20.565 2.39481 21.2834 3.0043 21.8806C3.60445 22.4871 4.33116 22.9584 5.12819 23.2569C5.89244 23.5509 6.76437 23.7561 8.03977 23.812C9.31956 23.8681 9.7276 23.882 12.986 23.882C16.2445 23.882 16.6524 23.8681 17.9323 23.812C19.2075 23.7561 20.0842 23.5509 20.8437 23.2569C22.4566 22.6364 23.7319 21.3674 24.3555 19.7626C24.6507 19.0021 24.8571 18.1343 24.9133 16.8653C24.9695 15.5917 24.9836 15.1858 24.9836 11.9434C24.9836 8.70093 24.9789 8.29508 24.9226 7.02139ZM22.7614 16.772C22.7097 17.9384 22.5129 18.5682 22.3488 18.9881C21.9455 20.0285 21.1157 20.8542 20.0701 21.2555C19.6482 21.4188 19.0107 21.6147 17.8431 21.6659C16.5773 21.7221 16.1976 21.7359 12.9954 21.7359C9.79316 21.7359 9.40875 21.7221 8.14746 21.6659C6.97535 21.6147 6.34242 21.4188 5.92046 21.2555C5.40015 21.0642 4.92655 20.7609 4.54214 20.3644C4.14362 19.9771 3.83887 19.5106 3.64658 18.9928C3.48248 18.5729 3.2856 17.9384 3.23414 16.7768C3.17773 15.5171 3.16382 15.1391 3.16382 11.9527C3.16382 8.76617 3.17773 8.38365 3.23414 7.12873C3.2856 5.96239 3.48248 5.33256 3.64658 4.91268C3.83887 4.39475 4.14362 3.92365 4.5469 3.54095C4.93589 3.14439 5.40473 2.84114 5.92522 2.64997C6.34718 2.48668 6.98487 2.29077 8.15222 2.23938C9.41809 2.18343 9.79792 2.1694 13 2.1694C16.207 2.1694 16.5866 2.18343 17.8479 2.23938C19.02 2.29077 19.6529 2.48668 20.0749 2.64997C20.5952 2.84114 21.0688 3.14439 21.4532 3.54095C21.8517 3.92821 22.1565 4.39475 22.3488 4.91268C22.5129 5.33256 22.7097 5.96694 22.7614 7.12873C22.8176 8.38838 22.8317 8.76617 22.8317 11.9527C22.8317 15.1391 22.8176 15.5124 22.7614 16.772Z" fill="white"/>
<path d="M12.9905 5.80859C9.58678 5.80859 6.8252 8.55643 6.8252 11.9436C6.8252 15.3307 9.58678 18.0785 12.9905 18.0785C16.3943 18.0785 19.1557 15.3307 19.1557 11.9436C19.1557 8.55643 16.3943 5.80859 12.9905 5.80859ZM12.9905 15.9232C10.7823 15.9232 8.99121 14.141 8.99121 11.9436C8.99121 9.7461 10.7823 7.96396 12.9905 7.96396C15.1988 7.96396 16.9897 9.7461 16.9897 11.9436C16.9897 14.141 15.1988 15.9232 12.9905 15.9232Z" fill="white"/>
<path d="M20.8397 5.56602C20.8397 6.35695 20.1953 6.99826 19.4002 6.99826C18.6054 6.99826 17.9609 6.35695 17.9609 5.56602C17.9609 4.77491 18.6054 4.13379 19.4002 4.13379C20.1953 4.13379 20.8397 4.77491 20.8397 5.56602Z" fill="white"/>
</g>
<defs>
<clipPath id="clip0_1213_3251">
<rect width="24" height="23.8821" fill="white" transform="translate(0.946289)"/>
</clipPath>
</defs>
</svg>
