<svg width="16" height="20" viewBox="0 0 16 20" fill="none" xmlns="http://www.w3.org/2000/svg">
<path fill-rule="evenodd" clip-rule="evenodd" d="M14.25 17C14.25 17.6904 13.6904 18.25 13 18.25L3 18.25C2.30964 18.25 1.75 17.6904 1.75 17L1.75 16C1.75 15.5858 1.41421 15.25 1 15.25C0.585787 15.25 0.25 15.5858 0.25 16L0.25 17C0.25 18.5188 1.48122 19.75 3 19.75L13 19.75C14.5188 19.75 15.75 18.5188 15.75 17L15.75 3C15.75 1.48122 14.5188 0.25 13 0.25L3 0.249999C1.48122 0.249999 0.250002 1.48122 0.250001 3L0.250001 4C0.250001 4.41421 0.585788 4.75 1 4.75C1.41421 4.75 1.75 4.41421 1.75 4L1.75 3C1.75 2.30964 2.30965 1.75 3 1.75L13 1.75C13.6904 1.75 14.25 2.30964 14.25 3L14.25 17ZM8.53033 9.46967C8.82322 9.76256 8.82322 10.2374 8.53033 10.5303L5.53033 13.5303C5.23744 13.8232 4.76256 13.8232 4.46967 13.5303C4.17678 13.2374 4.17678 12.7626 4.46967 12.4697L6.18934 10.75L1 10.75C0.585788 10.75 0.250001 10.4142 0.250001 10C0.250001 9.58579 0.585788 9.25 1 9.25L6.18934 9.25L4.46967 7.53033C4.17678 7.23744 4.17678 6.76256 4.46967 6.46967C4.76256 6.17678 5.23744 6.17678 5.53033 6.46967L8.53033 9.46967Z" fill="white"/>
</svg>
