<svg width="31" height="22" viewBox="0 0 31 22" fill="none" xmlns="http://www.w3.org/2000/svg">
<path fill-rule="evenodd" clip-rule="evenodd" d="M7.39656 6.13169C7.73872 5.65005 8.41236 5.53292 8.90117 5.87007L15.484 10.4105L22.0668 5.87007C22.5556 5.53292 23.2293 5.65005 23.5714 6.13169C23.9136 6.61333 23.7947 7.27709 23.3059 7.61424L16.1035 12.582C15.7316 12.8386 15.2364 12.8386 14.8645 12.582L7.66208 7.61424C7.17327 7.27709 7.05439 6.61333 7.39656 6.13169Z" fill="black"/>
<path fill-rule="evenodd" clip-rule="evenodd" d="M3.96131 2.12903C2.96687 2.12903 2.16071 2.92337 2.16071 3.90323V18.0968C2.16071 19.0766 2.96687 19.871 3.96131 19.871H27.0089C28.0034 19.871 28.8095 19.0766 28.8095 18.0968V3.90323C28.8095 2.92337 28.0034 2.12903 27.0089 2.12903H3.96131ZM0 3.90323C0 1.74753 1.77354 0 3.96131 0H27.0089C29.1967 0 30.9702 1.74753 30.9702 3.90323V18.0968C30.9702 20.2525 29.1967 22 27.0089 22H3.96131C1.77354 22 0 20.2525 0 18.0968V3.90323Z" fill="black"/>
</svg>
