<svg width="16" height="16" viewBox="0 0 16 16" fill="none" xmlns="http://www.w3.org/2000/svg">
<path fill-rule="evenodd" clip-rule="evenodd" d="M1.75 7C1.75 4.1005 4.1005 1.75 7 1.75C9.8995 1.75 12.25 4.1005 12.25 7C12.25 8.44745 11.6652 9.75688 10.7172 10.7074C9.76597 11.6612 8.45246 12.25 7 12.25C4.1005 12.25 1.75 9.8995 1.75 7ZM7 0.25C3.27208 0.25 0.25 3.27208 0.25 7C0.25 10.7279 3.27208 13.75 7 13.75C8.59346 13.75 10.0588 13.1971 11.2132 12.2739L14.4697 15.5303C14.7626 15.8232 15.2374 15.8232 15.5303 15.5303C15.8232 15.2374 15.8232 14.7626 15.5303 14.4697L12.2739 11.2132C13.1971 10.0588 13.75 8.59345 13.75 7C13.75 3.27208 10.7279 0.25 7 0.25Z" fill="#C00D0D"/>
</svg>
