<svg width="25" height="18" viewBox="0 0 25 18" fill="none" xmlns="http://www.w3.org/2000/svg">
<path d="M24.4518 3.59646C24.1752 2.57334 23.3646 1.76682 22.3366 1.49132C20.4585 0.97998 12.946 0.97998 12.946 0.97998C12.946 0.97998 5.43385 0.97998 3.55577 1.47194C2.54751 1.74714 1.71709 2.57348 1.44053 3.59646C0.946289 5.46517 0.946289 9.34062 0.946289 9.34062C0.946289 9.34062 0.946289 13.2356 1.44053 15.0848C1.71738 16.1077 2.52774 16.9143 3.55591 17.1898C5.45362 17.7013 12.9463 17.7013 12.9463 17.7013C12.9463 17.7013 20.4585 17.7013 22.3366 17.2093C23.3647 16.9339 24.1752 16.1274 24.4521 15.1045C24.9462 13.2356 24.9462 9.36029 24.9462 9.36029C24.9462 9.36029 24.966 5.46517 24.4518 3.59646ZM10.5542 12.9209V5.76034L16.8012 9.34062L10.5542 12.9209Z" fill="white"/>
</svg>
